<?xml version="1.0" encoding="utf-8"?>
<!-- Svg Vector Icons : http://www.onlinewebfonts.com/icon -->
<!DOCTYPE svg PUBLIC "-//W3C//DTD SVG 1.1//EN" "http://www.w3.org/Graphics/SVG/1.1/DTD/svg11.dtd">
<svg version="1.1" xmlns="http://www.w3.org/2000/svg" xmlns:xlink="http://www.w3.org/1999/xlink" x="0px" y="0px" viewBox="0 0 256 256" enable-background="new 0 0 256 256" xml:space="preserve">
<metadata> Svg Vector Icons : http://www.onlinewebfonts.com/icon </metadata>
<g><g><path fill="#000000" d="M241.1,83L136.5,47c-6.5-2.4-5.2-2.4-11.6,0L19.6,82.6c-6.5,2.3-6.4,6.2,0.1,8.5l25,8.5c-11.1,10.7-11.8,21.9-11.9,34.8c-4.3,1.6-7.3,5.8-7.3,10.7c0,4.5,2.6,8.3,6.3,10.2c-1.8,13.1-6.8,28.2-21.7,45.9c7.4,5.7,11.2,7.6,16.9,9.5c20.9-9,18.3-32.8,16.7-56.4c2.9-2.1,4.7-5.4,4.7-9.2c0-4.1-2.1-7.7-5.3-9.7c0.4-12.7,3.1-24,12.6-31.4c0.1-0.2,0.3-0.4,0.7-0.5l71.9-29.1c2.7-1.1,5.7,0.2,6.8,2.9l0.1,0.2c1.1,2.7-0.2,5.7-2.9,6.8l-60.8,24.3l54.4,18.4c6.5,2.4,5.2,2.4,11.6,0l103.8-35.7C247.6,89.1,247.6,85.3,241.1,83z M125.6,140.9l-65.8-22.3v16.8c3.4,3.2,5.3,7.7,5.3,12.7c0,4.5-1.6,8.6-4.2,11.7c0.9,2.6,2.4,5.2,4.6,6c38.3,21.2,91.3,21,133.8-2.1c3.2-2.6,5.6-5.9,5.6-9v-37L137.2,141C130.8,143.3,132.1,143.3,125.6,140.9z"/></g></g>
</svg>