<?xml version="1.0" standalone="no"?>
<svg xmlns:xlink="http://www.w3.org/1999/xlink" id="wave" style="transform:rotate(0deg); transition: 0.3s" viewBox="0 0 1440 320" version="1.1" xmlns="http://www.w3.org/2000/svg"><defs><linearGradient id="sw-gradient-0" x1="0" x2="0" y1="1" y2="0"><stop stop-color="rgba(108, 99, 255, 1)" offset="0%"/><stop stop-color="rgba(108, 99, 255, 1)" offset="100%"/></linearGradient></defs><path style="transform:translate(0, 0px); opacity:1" fill="url(#sw-gradient-0)" d="M0,128L15,128C30,128,60,128,90,112C120,96,150,64,180,74.7C210,85,240,139,270,154.7C300,171,330,149,360,128C390,107,420,85,450,69.3C480,53,510,43,540,42.7C570,43,600,53,630,85.3C660,117,690,171,720,170.7C750,171,780,117,810,101.3C840,85,870,107,900,122.7C930,139,960,149,990,128C1020,107,1050,53,1080,32C1110,11,1140,21,1170,64C1200,107,1230,181,1260,208C1290,235,1320,213,1350,176C1380,139,1410,85,1440,58.7C1470,32,1500,32,1530,26.7C1560,21,1590,11,1620,32C1650,53,1680,107,1710,106.7C1740,107,1770,53,1800,53.3C1830,53,1860,107,1890,144C1920,181,1950,203,1980,181.3C2010,160,2040,96,2070,85.3C2100,75,2130,117,2145,138.7L2160,160L2160,320L2145,320C2130,320,2100,320,2070,320C2040,320,2010,320,1980,320C1950,320,1920,320,1890,320C1860,320,1830,320,1800,320C1770,320,1740,320,1710,320C1680,320,1650,320,1620,320C1590,320,1560,320,1530,320C1500,320,1470,320,1440,320C1410,320,1380,320,1350,320C1320,320,1290,320,1260,320C1230,320,1200,320,1170,320C1140,320,1110,320,1080,320C1050,320,1020,320,990,320C960,320,930,320,900,320C870,320,840,320,810,320C780,320,750,320,720,320C690,320,660,320,630,320C600,320,570,320,540,320C510,320,480,320,450,320C420,320,390,320,360,320C330,320,300,320,270,320C240,320,210,320,180,320C150,320,120,320,90,320C60,320,30,320,15,320L0,320Z"/></svg>