<svg xmlns="http://www.w3.org/2000/svg" xmlns:xlink="http://www.w3.org/1999/xlink" width="1920" zoomAndPan="magnify" viewBox="0 0 1440 809.999993" height="1080" preserveAspectRatio="xMidYMid meet" version="1.0"><rect x="-144" width="1728" fill="#ffffff" y="-80.999999" height="971.999992" fill-opacity="1"/><rect x="-144" width="1728" fill="#ffffff" y="-80.999999" height="971.999992" fill-opacity="1"/><path fill="#b26952" d="M 116.449219 468.015625 L 1321.453125 468.015625 L 1321.453125 592.894531 L 116.449219 592.894531 Z M 116.449219 468.015625 " fill-opacity="1" fill-rule="nonzero"/><path fill="#e8cbaf" d="M 110.277344 459.4375 L 1327.632812 459.4375 L 1327.632812 480.617188 L 110.277344 480.617188 Z M 110.277344 459.4375 " fill-opacity="1" fill-rule="nonzero"/><path fill="#dc8969" d="M 393.914062 429.730469 L 1046.050781 429.730469 L 1046.050781 535.113281 L 393.914062 535.113281 Z M 393.914062 429.730469 " fill-opacity="1" fill-rule="nonzero"/><path fill="#f3e2ce" d="M 376 400.839844 L 1063.964844 400.839844 L 1063.964844 429.730469 L 376 429.730469 Z M 376 400.839844 " fill-opacity="1" fill-rule="nonzero"/><path fill="#f5eae0" d="M 376 399.324219 L 1063.964844 399.324219 L 1063.964844 403.660156 L 376 403.660156 Z M 376 399.324219 " fill-opacity="1" fill-rule="nonzero"/><path fill="#dc8969" d="M 393.914062 429.730469 L 1046.050781 429.730469 L 1046.050781 435.324219 L 393.914062 435.324219 Z M 393.914062 429.730469 " fill-opacity="0.4" fill-rule="nonzero"/><path fill="#dc8969" d="M 393.914062 498.429688 L 1046.050781 498.429688 L 1046.050781 504.589844 L 393.914062 504.589844 Z M 393.914062 498.429688 " fill-opacity="0.4" fill-rule="nonzero"/><path fill="#dc8969" d="M 12.050781 545.570312 L 1427.902344 545.570312 L 1427.902344 808.820312 L 12.050781 808.820312 Z M 12.050781 545.570312 " fill-opacity="1" fill-rule="nonzero"/><path fill="#f3e2ce" d="M 1.351562 781.410156 L 1438.613281 781.410156 L 1438.613281 810.300781 L 1.351562 810.300781 Z M 1.351562 781.410156 " fill-opacity="1" fill-rule="nonzero"/><path fill="#dc8969" d="M 12.050781 775.808594 L 1427.902344 775.808594 L 1427.902344 781.398438 L 12.050781 781.398438 Z M 12.050781 775.808594 " fill-opacity="0.4" fill-rule="nonzero"/><path fill="#dc8969" d="M 12.050781 545.589844 L 1427.902344 545.589844 L 1427.902344 551.183594 L 12.050781 551.183594 Z M 12.050781 545.589844 " fill-opacity="0.4" fill-rule="nonzero"/><path fill="#f3e2ce" d="M 1.351562 516.671875 L 1438.621094 516.671875 L 1438.621094 545.5625 L 1.351562 545.5625 Z M 1.351562 516.671875 " fill-opacity="1" fill-rule="nonzero"/><path fill="#f3e2ce" d="M 393.902344 544.414062 L 438.683594 544.414062 L 438.683594 781.417969 L 393.902344 781.417969 Z M 393.902344 544.414062 " fill-opacity="1" fill-rule="nonzero"/><path fill="#eda188" d="M 393.914062 563.496094 L 438.695312 563.496094 L 438.695312 567.019531 L 393.914062 567.019531 Z M 393.914062 563.496094 " fill-opacity="1" fill-rule="nonzero"/><path fill="#eda188" d="M 393.914062 591.195312 L 438.695312 591.195312 L 438.695312 594.71875 L 393.914062 594.71875 Z M 393.914062 591.195312 " fill-opacity="1" fill-rule="nonzero"/><path fill="#eda188" d="M 393.914062 618.894531 L 438.695312 618.894531 L 438.695312 622.414062 L 393.914062 622.414062 Z M 393.914062 618.894531 " fill-opacity="1" fill-rule="nonzero"/><path fill="#eda188" d="M 393.914062 646.582031 L 438.695312 646.582031 L 438.695312 650.105469 L 393.914062 650.105469 Z M 393.914062 646.582031 " fill-opacity="1" fill-rule="nonzero"/><path fill="#eda188" d="M 393.914062 674.277344 L 438.695312 674.277344 L 438.695312 677.800781 L 393.914062 677.800781 Z M 393.914062 674.277344 " fill-opacity="1" fill-rule="nonzero"/><path fill="#eda188" d="M 393.914062 701.976562 L 438.695312 701.976562 L 438.695312 705.5 L 393.914062 705.5 Z M 393.914062 701.976562 " fill-opacity="1" fill-rule="nonzero"/><path fill="#eda188" d="M 393.914062 729.675781 L 438.695312 729.675781 L 438.695312 733.195312 L 393.914062 733.195312 Z M 393.914062 729.675781 " fill-opacity="1" fill-rule="nonzero"/><path fill="#eda188" d="M 393.914062 757.363281 L 438.695312 757.363281 L 438.695312 760.886719 L 393.914062 760.886719 Z M 393.914062 757.363281 " fill-opacity="1" fill-rule="nonzero"/><path fill="#dc8969" d="M 438.683594 551.183594 L 444.089844 551.183594 L 444.089844 788.1875 L 438.683594 788.1875 Z M 438.683594 551.183594 " fill-opacity="0.4" fill-rule="nonzero"/><path fill="#f3e2ce" d="M 995.855469 544.414062 L 1040.636719 544.414062 L 1040.636719 781.417969 L 995.855469 781.417969 Z M 995.855469 544.414062 " fill-opacity="1" fill-rule="nonzero"/><path fill="#eda188" d="M 995.863281 563.496094 L 1040.644531 563.496094 L 1040.644531 567.019531 L 995.863281 567.019531 Z M 995.863281 563.496094 " fill-opacity="1" fill-rule="nonzero"/><path fill="#eda188" d="M 995.863281 591.195312 L 1040.644531 591.195312 L 1040.644531 594.71875 L 995.863281 594.71875 Z M 995.863281 591.195312 " fill-opacity="1" fill-rule="nonzero"/><path fill="#eda188" d="M 995.863281 618.894531 L 1040.644531 618.894531 L 1040.644531 622.414062 L 995.863281 622.414062 Z M 995.863281 618.894531 " fill-opacity="1" fill-rule="nonzero"/><path fill="#eda188" d="M 995.863281 646.582031 L 1040.644531 646.582031 L 1040.644531 650.105469 L 995.863281 650.105469 Z M 995.863281 646.582031 " fill-opacity="1" fill-rule="nonzero"/><path fill="#eda188" d="M 995.863281 674.277344 L 1040.644531 674.277344 L 1040.644531 677.800781 L 995.863281 677.800781 Z M 995.863281 674.277344 " fill-opacity="1" fill-rule="nonzero"/><path fill="#eda188" d="M 995.863281 701.976562 L 1040.644531 701.976562 L 1040.644531 705.5 L 995.863281 705.5 Z M 995.863281 701.976562 " fill-opacity="1" fill-rule="nonzero"/><path fill="#eda188" d="M 995.863281 729.675781 L 1040.644531 729.675781 L 1040.644531 733.195312 L 995.863281 733.195312 Z M 995.863281 729.675781 " fill-opacity="1" fill-rule="nonzero"/><path fill="#eda188" d="M 995.863281 757.363281 L 1040.644531 757.363281 L 1040.644531 760.886719 L 995.863281 760.886719 Z M 995.863281 757.363281 " fill-opacity="1" fill-rule="nonzero"/><path fill="#dc8969" d="M 1040.636719 551.183594 L 1046.042969 551.183594 L 1046.042969 788.1875 L 1040.636719 788.1875 Z M 1040.636719 551.183594 " fill-opacity="0.4" fill-rule="nonzero"/><path fill="#f3e2ce" d="M 793.515625 544.414062 L 838.296875 544.414062 L 838.296875 781.417969 L 793.515625 781.417969 Z M 793.515625 544.414062 " fill-opacity="1" fill-rule="nonzero"/><path fill="#eda188" d="M 793.523438 563.496094 L 838.304688 563.496094 L 838.304688 567.019531 L 793.523438 567.019531 Z M 793.523438 563.496094 " fill-opacity="1" fill-rule="nonzero"/><path fill="#eda188" d="M 793.523438 591.195312 L 838.304688 591.195312 L 838.304688 594.71875 L 793.523438 594.71875 Z M 793.523438 591.195312 " fill-opacity="1" fill-rule="nonzero"/><path fill="#eda188" d="M 793.523438 618.894531 L 838.304688 618.894531 L 838.304688 622.414062 L 793.523438 622.414062 Z M 793.523438 618.894531 " fill-opacity="1" fill-rule="nonzero"/><path fill="#eda188" d="M 793.523438 646.582031 L 838.304688 646.582031 L 838.304688 650.105469 L 793.523438 650.105469 Z M 793.523438 646.582031 " fill-opacity="1" fill-rule="nonzero"/><path fill="#eda188" d="M 793.523438 674.277344 L 838.304688 674.277344 L 838.304688 677.800781 L 793.523438 677.800781 Z M 793.523438 674.277344 " fill-opacity="1" fill-rule="nonzero"/><path fill="#eda188" d="M 793.523438 701.976562 L 838.304688 701.976562 L 838.304688 705.5 L 793.523438 705.5 Z M 793.523438 701.976562 " fill-opacity="1" fill-rule="nonzero"/><path fill="#eda188" d="M 793.523438 729.675781 L 838.304688 729.675781 L 838.304688 733.195312 L 793.523438 733.195312 Z M 793.523438 729.675781 " fill-opacity="1" fill-rule="nonzero"/><path fill="#eda188" d="M 793.523438 757.363281 L 838.304688 757.363281 L 838.304688 760.886719 L 793.523438 760.886719 Z M 793.523438 757.363281 " fill-opacity="1" fill-rule="nonzero"/><path fill="#dc8969" d="M 838.304688 551.183594 L 843.707031 551.183594 L 843.707031 788.1875 L 838.304688 788.1875 Z M 838.304688 551.183594 " fill-opacity="0.4" fill-rule="nonzero"/><path fill="#f3e2ce" d="M 591.183594 544.414062 L 635.960938 544.414062 L 635.960938 781.417969 L 591.183594 781.417969 Z M 591.183594 544.414062 " fill-opacity="1" fill-rule="nonzero"/><path fill="#eda188" d="M 591.191406 563.496094 L 635.972656 563.496094 L 635.972656 567.019531 L 591.191406 567.019531 Z M 591.191406 563.496094 " fill-opacity="1" fill-rule="nonzero"/><path fill="#eda188" d="M 591.191406 591.195312 L 635.972656 591.195312 L 635.972656 594.71875 L 591.191406 594.71875 Z M 591.191406 591.195312 " fill-opacity="1" fill-rule="nonzero"/><path fill="#eda188" d="M 591.191406 618.894531 L 635.972656 618.894531 L 635.972656 622.414062 L 591.191406 622.414062 Z M 591.191406 618.894531 " fill-opacity="1" fill-rule="nonzero"/><path fill="#eda188" d="M 591.191406 646.582031 L 635.972656 646.582031 L 635.972656 650.105469 L 591.191406 650.105469 Z M 591.191406 646.582031 " fill-opacity="1" fill-rule="nonzero"/><path fill="#eda188" d="M 591.191406 674.277344 L 635.972656 674.277344 L 635.972656 677.800781 L 591.191406 677.800781 Z M 591.191406 674.277344 " fill-opacity="1" fill-rule="nonzero"/><path fill="#eda188" d="M 591.191406 701.976562 L 635.972656 701.976562 L 635.972656 705.5 L 591.191406 705.5 Z M 591.191406 701.976562 " fill-opacity="1" fill-rule="nonzero"/><path fill="#eda188" d="M 591.191406 729.675781 L 635.972656 729.675781 L 635.972656 733.195312 L 591.191406 733.195312 Z M 591.191406 729.675781 " fill-opacity="1" fill-rule="nonzero"/><path fill="#eda188" d="M 591.191406 757.363281 L 635.972656 757.363281 L 635.972656 760.886719 L 591.191406 760.886719 Z M 591.191406 757.363281 " fill-opacity="1" fill-rule="nonzero"/><path fill="#dc8969" d="M 635.960938 551.183594 L 641.367188 551.183594 L 641.367188 788.1875 L 635.960938 788.1875 Z M 635.960938 551.183594 " fill-opacity="0.4" fill-rule="nonzero"/><path fill="#27465e" d="M 230.484375 592.5 L 351.867188 592.5 L 351.867188 642.105469 L 230.484375 642.105469 Z M 230.484375 592.5 " fill-opacity="1" fill-rule="nonzero"/><path fill="#1b3545" d="M 230.117188 592.886719 L 230.117188 597.898438 L 344.890625 600.46875 L 347.597656 643.132812 L 352.191406 643.132812 L 352.191406 592.109375 Z M 230.117188 592.886719 " fill-opacity="1" fill-rule="nonzero"/><path fill="#f3e2ce" d="M 227.796875 589.816406 L 353.03125 589.816406 L 353.03125 595.207031 L 227.796875 595.207031 Z M 227.796875 589.816406 " fill-opacity="1" fill-rule="nonzero"/><path fill="#f3e2ce" d="M 227.796875 589.816406 L 233.164062 589.816406 L 233.164062 644.804688 L 227.796875 644.804688 Z M 227.796875 589.816406 " fill-opacity="1" fill-rule="nonzero"/><path fill="#f3e2ce" d="M 349.179688 589.816406 L 354.546875 589.816406 L 354.546875 644.804688 L 349.179688 644.804688 Z M 349.179688 589.816406 " fill-opacity="1" fill-rule="nonzero"/><path fill="#f3e2ce" d="M 227.796875 639.417969 L 353.03125 639.417969 L 353.03125 644.804688 L 227.796875 644.804688 Z M 227.796875 639.417969 " fill-opacity="1" fill-rule="nonzero"/><path fill="#f3e2ce" d="M 250.015625 592.128906 L 252.1875 592.128906 L 252.1875 642.496094 L 250.015625 642.496094 Z M 250.015625 592.128906 " fill-opacity="1" fill-rule="nonzero"/><path fill="#f3e2ce" d="M 230.125 610.292969 L 353.03125 610.292969 L 353.03125 612.46875 L 230.125 612.46875 Z M 230.125 610.292969 " fill-opacity="1" fill-rule="nonzero"/><path fill="#f3e2ce" d="M 290.113281 592.128906 L 292.265625 592.128906 L 292.265625 642.496094 L 290.113281 642.496094 Z M 290.113281 592.128906 " fill-opacity="1" fill-rule="nonzero"/><path fill="#f3e2ce" d="M 330.183594 592.128906 L 332.355469 592.128906 L 332.355469 642.496094 L 330.183594 642.496094 Z M 330.183594 592.128906 " fill-opacity="1" fill-rule="nonzero"/><path fill="#a6daf5" d="M 234.429688 614.140625 L 234.429688 618.410156 L 248.769531 615.90625 L 248.769531 614.140625 Z M 234.429688 614.140625 " fill-opacity="0.3" fill-rule="nonzero"/><path fill="#a6daf5" d="M 254.0625 614.140625 L 254.0625 620.980469 L 288.265625 616.277344 L 288.265625 614.140625 Z M 254.0625 614.140625 " fill-opacity="0.3" fill-rule="nonzero"/><path fill="#a6daf5" d="M 294.125 614.140625 L 294.125 620.980469 L 328.324219 616.277344 L 328.324219 614.140625 Z M 294.125 614.140625 " fill-opacity="0.3" fill-rule="nonzero"/><path fill="#a6daf5" d="M 333.601562 614.140625 L 333.601562 618.410156 L 344.707031 616.277344 L 344.6875 614.140625 Z M 333.601562 614.140625 " fill-opacity="0.3" fill-rule="nonzero"/><path fill="#27465e" d="M 230.484375 683.699219 L 351.867188 683.699219 L 351.867188 733.308594 L 230.484375 733.308594 Z M 230.484375 683.699219 " fill-opacity="1" fill-rule="nonzero"/><path fill="#1b3545" d="M 230.117188 684.089844 L 230.117188 689.097656 L 344.890625 691.679688 L 347.597656 734.335938 L 352.191406 734.335938 L 352.191406 683.320312 Z M 230.117188 684.089844 " fill-opacity="1" fill-rule="nonzero"/><path fill="#f3e2ce" d="M 227.796875 681.019531 L 353.03125 681.019531 L 353.03125 686.410156 L 227.796875 686.410156 Z M 227.796875 681.019531 " fill-opacity="1" fill-rule="nonzero"/><path fill="#f3e2ce" d="M 227.796875 681.019531 L 233.164062 681.019531 L 233.164062 736.007812 L 227.796875 736.007812 Z M 227.796875 681.019531 " fill-opacity="1" fill-rule="nonzero"/><path fill="#f3e2ce" d="M 349.179688 681.019531 L 354.546875 681.019531 L 354.546875 736.007812 L 349.179688 736.007812 Z M 349.179688 681.019531 " fill-opacity="1" fill-rule="nonzero"/><path fill="#f3e2ce" d="M 227.796875 730.617188 L 353.03125 730.617188 L 353.03125 736.007812 L 227.796875 736.007812 Z M 227.796875 730.617188 " fill-opacity="1" fill-rule="nonzero"/><path fill="#f3e2ce" d="M 250.015625 683.328125 L 252.1875 683.328125 L 252.1875 733.695312 L 250.015625 733.695312 Z M 250.015625 683.328125 " fill-opacity="1" fill-rule="nonzero"/><path fill="#f3e2ce" d="M 230.125 701.496094 L 353.03125 701.496094 L 353.03125 703.667969 L 230.125 703.667969 Z M 230.125 701.496094 " fill-opacity="1" fill-rule="nonzero"/><path fill="#f3e2ce" d="M 290.113281 683.328125 L 292.265625 683.328125 L 292.265625 733.695312 L 290.113281 733.695312 Z M 290.113281 683.328125 " fill-opacity="1" fill-rule="nonzero"/><path fill="#f3e2ce" d="M 330.183594 683.328125 L 332.355469 683.328125 L 332.355469 733.695312 L 330.183594 733.695312 Z M 330.183594 683.328125 " fill-opacity="1" fill-rule="nonzero"/><path fill="#a6daf5" d="M 234.429688 705.351562 L 234.429688 709.621094 L 248.769531 707.109375 L 248.769531 705.351562 Z M 234.429688 705.351562 " fill-opacity="0.3" fill-rule="nonzero"/><path fill="#a6daf5" d="M 254.0625 705.351562 L 254.0625 712.191406 L 288.265625 707.488281 L 288.265625 705.351562 Z M 254.0625 705.351562 " fill-opacity="0.3" fill-rule="nonzero"/><path fill="#a6daf5" d="M 294.125 705.351562 L 294.125 712.191406 L 328.324219 707.488281 L 328.324219 705.351562 Z M 294.125 705.351562 " fill-opacity="0.3" fill-rule="nonzero"/><path fill="#a6daf5" d="M 333.601562 705.351562 L 333.601562 709.621094 L 344.707031 707.488281 L 344.6875 705.351562 Z M 333.601562 705.351562 " fill-opacity="0.3" fill-rule="nonzero"/><path fill="#27465e" d="M 62.597656 592.5 L 183.976562 592.5 L 183.976562 642.105469 L 62.597656 642.105469 Z M 62.597656 592.5 " fill-opacity="1" fill-rule="nonzero"/><path fill="#1b3545" d="M 62.234375 592.886719 L 62.234375 597.898438 L 177 600.46875 L 179.707031 643.132812 L 184.308594 643.132812 L 184.308594 592.109375 Z M 62.234375 592.886719 " fill-opacity="1" fill-rule="nonzero"/><path fill="#f3e2ce" d="M 59.917969 589.816406 L 185.148438 589.816406 L 185.148438 595.207031 L 59.917969 595.207031 Z M 59.917969 589.816406 " fill-opacity="1" fill-rule="nonzero"/><path fill="#f3e2ce" d="M 59.917969 589.816406 L 65.285156 589.816406 L 65.285156 644.804688 L 59.917969 644.804688 Z M 59.917969 589.816406 " fill-opacity="1" fill-rule="nonzero"/><path fill="#f3e2ce" d="M 181.296875 589.816406 L 186.664062 589.816406 L 186.664062 644.804688 L 181.296875 644.804688 Z M 181.296875 589.816406 " fill-opacity="1" fill-rule="nonzero"/><path fill="#f3e2ce" d="M 59.917969 639.417969 L 185.148438 639.417969 L 185.148438 644.804688 L 59.917969 644.804688 Z M 59.917969 639.417969 " fill-opacity="1" fill-rule="nonzero"/><path fill="#f3e2ce" d="M 82.136719 592.128906 L 84.308594 592.128906 L 84.308594 642.496094 L 82.136719 642.496094 Z M 82.136719 592.128906 " fill-opacity="1" fill-rule="nonzero"/><path fill="#f3e2ce" d="M 62.246094 610.292969 L 185.148438 610.292969 L 185.148438 612.46875 L 62.246094 612.46875 Z M 62.246094 610.292969 " fill-opacity="1" fill-rule="nonzero"/><path fill="#f3e2ce" d="M 122.222656 592.128906 L 124.375 592.128906 L 124.375 642.496094 L 122.222656 642.496094 Z M 122.222656 592.128906 " fill-opacity="1" fill-rule="nonzero"/><path fill="#f3e2ce" d="M 162.292969 592.128906 L 164.464844 592.128906 L 164.464844 642.496094 L 162.292969 642.496094 Z M 162.292969 592.128906 " fill-opacity="1" fill-rule="nonzero"/><path fill="#a6daf5" d="M 66.542969 614.140625 L 66.542969 618.410156 L 80.878906 615.90625 L 80.878906 614.140625 Z M 66.542969 614.140625 " fill-opacity="0.3" fill-rule="nonzero"/><path fill="#a6daf5" d="M 86.175781 614.140625 L 86.175781 620.980469 L 120.375 616.277344 L 120.375 614.140625 Z M 86.175781 614.140625 " fill-opacity="0.3" fill-rule="nonzero"/><path fill="#a6daf5" d="M 126.242188 614.140625 L 126.242188 620.980469 L 160.4375 616.277344 L 160.4375 614.140625 Z M 126.242188 614.140625 " fill-opacity="0.3" fill-rule="nonzero"/><path fill="#a6daf5" d="M 165.722656 614.140625 L 165.722656 618.410156 L 176.824219 616.277344 L 176.796875 614.140625 Z M 165.722656 614.140625 " fill-opacity="0.3" fill-rule="nonzero"/><path fill="#27465e" d="M 62.597656 683.699219 L 183.976562 683.699219 L 183.976562 733.308594 L 62.597656 733.308594 Z M 62.597656 683.699219 " fill-opacity="1" fill-rule="nonzero"/><path fill="#1b3545" d="M 62.234375 684.089844 L 62.234375 689.097656 L 177 691.679688 L 179.707031 734.335938 L 184.308594 734.335938 L 184.308594 683.320312 Z M 62.234375 684.089844 " fill-opacity="1" fill-rule="nonzero"/><path fill="#f3e2ce" d="M 59.917969 681.019531 L 185.148438 681.019531 L 185.148438 686.410156 L 59.917969 686.410156 Z M 59.917969 681.019531 " fill-opacity="1" fill-rule="nonzero"/><path fill="#f3e2ce" d="M 59.917969 681.019531 L 65.285156 681.019531 L 65.285156 736.007812 L 59.917969 736.007812 Z M 59.917969 681.019531 " fill-opacity="1" fill-rule="nonzero"/><path fill="#f3e2ce" d="M 181.296875 681.019531 L 186.664062 681.019531 L 186.664062 736.007812 L 181.296875 736.007812 Z M 181.296875 681.019531 " fill-opacity="1" fill-rule="nonzero"/><path fill="#f3e2ce" d="M 59.917969 730.617188 L 185.148438 730.617188 L 185.148438 736.007812 L 59.917969 736.007812 Z M 59.917969 730.617188 " fill-opacity="1" fill-rule="nonzero"/><path fill="#f3e2ce" d="M 82.136719 683.328125 L 84.308594 683.328125 L 84.308594 733.695312 L 82.136719 733.695312 Z M 82.136719 683.328125 " fill-opacity="1" fill-rule="nonzero"/><path fill="#f3e2ce" d="M 62.246094 701.496094 L 185.148438 701.496094 L 185.148438 703.667969 L 62.246094 703.667969 Z M 62.246094 701.496094 " fill-opacity="1" fill-rule="nonzero"/><path fill="#f3e2ce" d="M 122.222656 683.328125 L 124.375 683.328125 L 124.375 733.695312 L 122.222656 733.695312 Z M 122.222656 683.328125 " fill-opacity="1" fill-rule="nonzero"/><path fill="#f3e2ce" d="M 162.292969 683.328125 L 164.464844 683.328125 L 164.464844 733.695312 L 162.292969 733.695312 Z M 162.292969 683.328125 " fill-opacity="1" fill-rule="nonzero"/><path fill="#a6daf5" d="M 66.542969 705.351562 L 66.542969 709.621094 L 80.878906 707.109375 L 80.878906 705.351562 Z M 66.542969 705.351562 " fill-opacity="0.3" fill-rule="nonzero"/><path fill="#a6daf5" d="M 86.175781 705.351562 L 86.175781 712.191406 L 120.375 707.488281 L 120.375 705.351562 Z M 86.175781 705.351562 " fill-opacity="0.3" fill-rule="nonzero"/><path fill="#a6daf5" d="M 126.242188 705.351562 L 126.242188 712.191406 L 160.4375 707.488281 L 160.4375 705.351562 Z M 126.242188 705.351562 " fill-opacity="0.3" fill-rule="nonzero"/><path fill="#a6daf5" d="M 165.722656 705.351562 L 165.722656 709.621094 L 176.824219 707.488281 L 176.796875 705.351562 Z M 165.722656 705.351562 " fill-opacity="0.3" fill-rule="nonzero"/><path fill="#27465e" d="M 1257.140625 592.5 L 1378.523438 592.5 L 1378.523438 642.105469 L 1257.140625 642.105469 Z M 1257.140625 592.5 " fill-opacity="1" fill-rule="nonzero"/><path fill="#1b3545" d="M 1256.78125 592.886719 L 1256.78125 597.898438 L 1371.546875 600.46875 L 1374.253906 643.132812 L 1378.855469 643.132812 L 1378.855469 592.109375 Z M 1256.78125 592.886719 " fill-opacity="1" fill-rule="nonzero"/><path fill="#f3e2ce" d="M 1254.460938 589.816406 L 1379.695312 589.816406 L 1379.695312 595.207031 L 1254.460938 595.207031 Z M 1254.460938 589.816406 " fill-opacity="1" fill-rule="nonzero"/><path fill="#f3e2ce" d="M 1254.460938 589.816406 L 1259.828125 589.816406 L 1259.828125 644.804688 L 1254.460938 644.804688 Z M 1254.460938 589.816406 " fill-opacity="1" fill-rule="nonzero"/><path fill="#f3e2ce" d="M 1375.84375 589.816406 L 1381.210938 589.816406 L 1381.210938 644.804688 L 1375.84375 644.804688 Z M 1375.84375 589.816406 " fill-opacity="1" fill-rule="nonzero"/><path fill="#f3e2ce" d="M 1254.460938 639.417969 L 1379.695312 639.417969 L 1379.695312 644.804688 L 1254.460938 644.804688 Z M 1254.460938 639.417969 " fill-opacity="1" fill-rule="nonzero"/><path fill="#f3e2ce" d="M 1276.679688 592.128906 L 1278.851562 592.128906 L 1278.851562 642.496094 L 1276.679688 642.496094 Z M 1276.679688 592.128906 " fill-opacity="1" fill-rule="nonzero"/><path fill="#f3e2ce" d="M 1256.789062 610.292969 L 1379.695312 610.292969 L 1379.695312 612.46875 L 1256.789062 612.46875 Z M 1256.789062 610.292969 " fill-opacity="1" fill-rule="nonzero"/><path fill="#f3e2ce" d="M 1316.769531 592.128906 L 1318.921875 592.128906 L 1318.921875 642.496094 L 1316.769531 642.496094 Z M 1316.769531 592.128906 " fill-opacity="1" fill-rule="nonzero"/><path fill="#f3e2ce" d="M 1356.839844 592.128906 L 1359.007812 592.128906 L 1359.007812 642.496094 L 1356.839844 642.496094 Z M 1356.839844 592.128906 " fill-opacity="1" fill-rule="nonzero"/><path fill="#a6daf5" d="M 1261.085938 614.140625 L 1261.085938 618.410156 L 1275.425781 615.90625 L 1275.425781 614.140625 Z M 1261.085938 614.140625 " fill-opacity="0.3" fill-rule="nonzero"/><path fill="#a6daf5" d="M 1280.71875 614.140625 L 1280.71875 620.980469 L 1314.921875 616.277344 L 1314.921875 614.140625 Z M 1280.71875 614.140625 " fill-opacity="0.3" fill-rule="nonzero"/><path fill="#a6daf5" d="M 1320.777344 614.140625 L 1320.777344 620.980469 L 1354.980469 616.277344 L 1354.980469 614.140625 Z M 1320.777344 614.140625 " fill-opacity="0.3" fill-rule="nonzero"/><path fill="#a6daf5" d="M 1360.265625 614.140625 L 1360.265625 618.410156 L 1371.371094 616.277344 L 1371.34375 614.140625 Z M 1360.265625 614.140625 " fill-opacity="0.3" fill-rule="nonzero"/><path fill="#27465e" d="M 1257.140625 683.699219 L 1378.523438 683.699219 L 1378.523438 733.308594 L 1257.140625 733.308594 Z M 1257.140625 683.699219 " fill-opacity="1" fill-rule="nonzero"/><path fill="#1b3545" d="M 1256.78125 684.089844 L 1256.78125 689.097656 L 1371.546875 691.679688 L 1374.253906 734.335938 L 1378.855469 734.335938 L 1378.855469 683.320312 Z M 1256.78125 684.089844 " fill-opacity="1" fill-rule="nonzero"/><path fill="#f3e2ce" d="M 1254.460938 681.019531 L 1379.695312 681.019531 L 1379.695312 686.410156 L 1254.460938 686.410156 Z M 1254.460938 681.019531 " fill-opacity="1" fill-rule="nonzero"/><path fill="#f3e2ce" d="M 1254.460938 681.019531 L 1259.828125 681.019531 L 1259.828125 736.007812 L 1254.460938 736.007812 Z M 1254.460938 681.019531 " fill-opacity="1" fill-rule="nonzero"/><path fill="#f3e2ce" d="M 1375.84375 681.019531 L 1381.210938 681.019531 L 1381.210938 736.007812 L 1375.84375 736.007812 Z M 1375.84375 681.019531 " fill-opacity="1" fill-rule="nonzero"/><path fill="#f3e2ce" d="M 1254.460938 730.617188 L 1379.695312 730.617188 L 1379.695312 736.007812 L 1254.460938 736.007812 Z M 1254.460938 730.617188 " fill-opacity="1" fill-rule="nonzero"/><path fill="#f3e2ce" d="M 1276.679688 683.328125 L 1278.851562 683.328125 L 1278.851562 733.695312 L 1276.679688 733.695312 Z M 1276.679688 683.328125 " fill-opacity="1" fill-rule="nonzero"/><path fill="#f3e2ce" d="M 1256.789062 701.496094 L 1379.695312 701.496094 L 1379.695312 703.667969 L 1256.789062 703.667969 Z M 1256.789062 701.496094 " fill-opacity="1" fill-rule="nonzero"/><path fill="#f3e2ce" d="M 1316.769531 683.328125 L 1318.921875 683.328125 L 1318.921875 733.695312 L 1316.769531 733.695312 Z M 1316.769531 683.328125 " fill-opacity="1" fill-rule="nonzero"/><path fill="#f3e2ce" d="M 1356.839844 683.328125 L 1359.007812 683.328125 L 1359.007812 733.695312 L 1356.839844 733.695312 Z M 1356.839844 683.328125 " fill-opacity="1" fill-rule="nonzero"/><path fill="#a6daf5" d="M 1261.085938 705.351562 L 1261.085938 709.621094 L 1275.425781 707.109375 L 1275.425781 705.351562 Z M 1261.085938 705.351562 " fill-opacity="0.3" fill-rule="nonzero"/><path fill="#a6daf5" d="M 1280.71875 705.351562 L 1280.71875 712.191406 L 1314.921875 707.488281 L 1314.921875 705.351562 Z M 1280.71875 705.351562 " fill-opacity="0.3" fill-rule="nonzero"/><path fill="#a6daf5" d="M 1320.777344 705.351562 L 1320.777344 712.191406 L 1354.980469 707.488281 L 1354.980469 705.351562 Z M 1320.777344 705.351562 " fill-opacity="0.3" fill-rule="nonzero"/><path fill="#a6daf5" d="M 1360.265625 705.351562 L 1360.265625 709.621094 L 1371.371094 707.488281 L 1371.34375 705.351562 Z M 1360.265625 705.351562 " fill-opacity="0.3" fill-rule="nonzero"/><path fill="#27465e" d="M 1089.261719 592.5 L 1210.640625 592.5 L 1210.640625 642.105469 L 1089.261719 642.105469 Z M 1089.261719 592.5 " fill-opacity="1" fill-rule="nonzero"/><path fill="#1b3545" d="M 1088.890625 592.886719 L 1088.890625 597.898438 L 1203.667969 600.46875 L 1206.375 643.132812 L 1210.964844 643.132812 L 1210.964844 592.109375 Z M 1088.890625 592.886719 " fill-opacity="1" fill-rule="nonzero"/><path fill="#f3e2ce" d="M 1086.570312 589.816406 L 1211.804688 589.816406 L 1211.804688 595.207031 L 1086.570312 595.207031 Z M 1086.570312 589.816406 " fill-opacity="1" fill-rule="nonzero"/><path fill="#f3e2ce" d="M 1086.570312 589.816406 L 1091.941406 589.816406 L 1091.941406 644.804688 L 1086.570312 644.804688 Z M 1086.570312 589.816406 " fill-opacity="1" fill-rule="nonzero"/><path fill="#f3e2ce" d="M 1207.953125 589.816406 L 1213.320312 589.816406 L 1213.320312 644.804688 L 1207.953125 644.804688 Z M 1207.953125 589.816406 " fill-opacity="1" fill-rule="nonzero"/><path fill="#f3e2ce" d="M 1086.570312 639.417969 L 1211.804688 639.417969 L 1211.804688 644.804688 L 1086.570312 644.804688 Z M 1086.570312 639.417969 " fill-opacity="1" fill-rule="nonzero"/><path fill="#f3e2ce" d="M 1108.792969 592.128906 L 1110.960938 592.128906 L 1110.960938 642.496094 L 1108.792969 642.496094 Z M 1108.792969 592.128906 " fill-opacity="1" fill-rule="nonzero"/><path fill="#f3e2ce" d="M 1088.898438 610.292969 L 1211.804688 610.292969 L 1211.804688 612.46875 L 1088.898438 612.46875 Z M 1088.898438 610.292969 " fill-opacity="1" fill-rule="nonzero"/><path fill="#f3e2ce" d="M 1148.886719 592.128906 L 1151.042969 592.128906 L 1151.042969 642.496094 L 1148.886719 642.496094 Z M 1148.886719 592.128906 " fill-opacity="1" fill-rule="nonzero"/><path fill="#f3e2ce" d="M 1188.957031 592.128906 L 1191.128906 592.128906 L 1191.128906 642.496094 L 1188.957031 642.496094 Z M 1188.957031 592.128906 " fill-opacity="1" fill-rule="nonzero"/><path fill="#a6daf5" d="M 1093.207031 614.140625 L 1093.207031 618.410156 L 1107.542969 615.90625 L 1107.542969 614.140625 Z M 1093.207031 614.140625 " fill-opacity="0.3" fill-rule="nonzero"/><path fill="#a6daf5" d="M 1112.839844 614.140625 L 1112.839844 620.980469 L 1147.039062 616.277344 L 1147.039062 614.140625 Z M 1112.839844 614.140625 " fill-opacity="0.3" fill-rule="nonzero"/><path fill="#a6daf5" d="M 1152.898438 614.140625 L 1152.898438 620.980469 L 1187.101562 616.277344 L 1187.101562 614.140625 Z M 1152.898438 614.140625 " fill-opacity="0.3" fill-rule="nonzero"/><path fill="#a6daf5" d="M 1192.375 614.140625 L 1192.375 618.410156 L 1203.480469 616.277344 L 1203.460938 614.140625 Z M 1192.375 614.140625 " fill-opacity="0.3" fill-rule="nonzero"/><path fill="#27465e" d="M 1089.261719 683.699219 L 1210.640625 683.699219 L 1210.640625 733.308594 L 1089.261719 733.308594 Z M 1089.261719 683.699219 " fill-opacity="1" fill-rule="nonzero"/><path fill="#1b3545" d="M 1088.890625 684.089844 L 1088.890625 689.097656 L 1203.667969 691.679688 L 1206.375 734.335938 L 1210.964844 734.335938 L 1210.964844 683.320312 Z M 1088.890625 684.089844 " fill-opacity="1" fill-rule="nonzero"/><path fill="#f3e2ce" d="M 1086.570312 681.019531 L 1211.804688 681.019531 L 1211.804688 686.410156 L 1086.570312 686.410156 Z M 1086.570312 681.019531 " fill-opacity="1" fill-rule="nonzero"/><path fill="#f3e2ce" d="M 1086.570312 681.019531 L 1091.941406 681.019531 L 1091.941406 736.007812 L 1086.570312 736.007812 Z M 1086.570312 681.019531 " fill-opacity="1" fill-rule="nonzero"/><path fill="#f3e2ce" d="M 1207.953125 681.019531 L 1213.320312 681.019531 L 1213.320312 736.007812 L 1207.953125 736.007812 Z M 1207.953125 681.019531 " fill-opacity="1" fill-rule="nonzero"/><path fill="#f3e2ce" d="M 1086.570312 730.617188 L 1211.804688 730.617188 L 1211.804688 736.007812 L 1086.570312 736.007812 Z M 1086.570312 730.617188 " fill-opacity="1" fill-rule="nonzero"/><path fill="#f3e2ce" d="M 1108.792969 683.328125 L 1110.960938 683.328125 L 1110.960938 733.695312 L 1108.792969 733.695312 Z M 1108.792969 683.328125 " fill-opacity="1" fill-rule="nonzero"/><path fill="#f3e2ce" d="M 1088.898438 701.496094 L 1211.804688 701.496094 L 1211.804688 703.667969 L 1088.898438 703.667969 Z M 1088.898438 701.496094 " fill-opacity="1" fill-rule="nonzero"/><path fill="#f3e2ce" d="M 1148.886719 683.328125 L 1151.042969 683.328125 L 1151.042969 733.695312 L 1148.886719 733.695312 Z M 1148.886719 683.328125 " fill-opacity="1" fill-rule="nonzero"/><path fill="#f3e2ce" d="M 1188.957031 683.328125 L 1191.128906 683.328125 L 1191.128906 733.695312 L 1188.957031 733.695312 Z M 1188.957031 683.328125 " fill-opacity="1" fill-rule="nonzero"/><path fill="#a6daf5" d="M 1093.207031 705.351562 L 1093.207031 709.621094 L 1107.542969 707.109375 L 1107.542969 705.351562 Z M 1093.207031 705.351562 " fill-opacity="0.3" fill-rule="nonzero"/><path fill="#a6daf5" d="M 1112.839844 705.351562 L 1112.839844 712.191406 L 1147.039062 707.488281 L 1147.039062 705.351562 Z M 1112.839844 705.351562 " fill-opacity="0.3" fill-rule="nonzero"/><path fill="#a6daf5" d="M 1152.898438 705.351562 L 1152.898438 712.191406 L 1187.101562 707.488281 L 1187.101562 705.351562 Z M 1152.898438 705.351562 " fill-opacity="0.3" fill-rule="nonzero"/><path fill="#a6daf5" d="M 1192.375 705.351562 L 1192.375 709.621094 L 1203.480469 707.488281 L 1203.460938 705.351562 Z M 1192.375 705.351562 " fill-opacity="0.3" fill-rule="nonzero"/><path fill="#27465e" d="M 476.222656 580.089844 L 557.40625 580.089844 L 557.40625 618.28125 L 476.222656 618.28125 Z M 476.222656 580.089844 " fill-opacity="1" fill-rule="nonzero"/><path fill="#1b3545" d="M 475.90625 580.683594 L 475.90625 584.539062 L 551.703125 586.527344 L 553.488281 619.402344 L 556.527344 619.402344 L 556.527344 580.082031 Z M 475.90625 580.683594 " fill-opacity="1" fill-rule="nonzero"/><path fill="#f3e2ce" d="M 473.523438 577.800781 L 560.09375 577.800781 L 560.09375 583.1875 L 473.523438 583.1875 Z M 473.523438 577.800781 " fill-opacity="1" fill-rule="nonzero"/><path fill="#f3e2ce" d="M 554.707031 577.800781 L 554.707031 620.980469 L 560.09375 620.980469 L 560.09375 577.800781 Z M 554.707031 577.800781 " fill-opacity="1" fill-rule="nonzero"/><path fill="#f3e2ce" d="M 473.523438 577.800781 L 478.910156 577.800781 L 478.910156 620.980469 L 473.523438 620.980469 Z M 473.523438 577.800781 " fill-opacity="1" fill-rule="nonzero"/><path fill="#f3e2ce" d="M 473.523438 615.59375 L 560.09375 615.59375 L 560.09375 620.980469 L 473.523438 620.980469 Z M 473.523438 615.59375 " fill-opacity="1" fill-rule="nonzero"/><path fill="#f3e2ce" d="M 495.816406 580.089844 L 497.96875 580.089844 L 497.96875 620.945312 L 495.816406 620.945312 Z M 495.816406 580.089844 " fill-opacity="1" fill-rule="nonzero"/><path fill="#f3e2ce" d="M 475.90625 598.277344 L 557.886719 598.277344 L 557.886719 600.429688 L 475.90625 600.429688 Z M 475.90625 598.277344 " fill-opacity="1" fill-rule="nonzero"/><path fill="#f3e2ce" d="M 535.886719 580.089844 L 538.058594 580.089844 L 538.058594 620.945312 L 535.886719 620.945312 Z M 535.886719 580.089844 " fill-opacity="1" fill-rule="nonzero"/><path fill="#a6daf5" d="M 480.214844 602.113281 L 480.214844 606.382812 L 494.550781 603.878906 L 494.550781 602.113281 Z M 480.214844 602.113281 " fill-opacity="0.3" fill-rule="nonzero"/><path fill="#a6daf5" d="M 499.847656 602.113281 L 499.847656 608.953125 L 534.046875 604.25 L 534.046875 602.113281 Z M 499.847656 602.113281 " fill-opacity="0.3" fill-rule="nonzero"/><path fill="#a6daf5" d="M 539.316406 602.113281 L 539.316406 606.382812 L 550.417969 604.25 L 550.390625 602.113281 Z M 539.316406 602.113281 " fill-opacity="0.3" fill-rule="nonzero"/><path fill="#27465e" d="M 676.863281 580.089844 L 758.046875 580.089844 L 758.046875 618.28125 L 676.863281 618.28125 Z M 676.863281 580.089844 " fill-opacity="1" fill-rule="nonzero"/><path fill="#1b3545" d="M 676.550781 580.683594 L 676.550781 584.539062 L 752.34375 586.527344 L 754.128906 619.402344 L 757.167969 619.402344 L 757.167969 580.082031 Z M 676.550781 580.683594 " fill-opacity="1" fill-rule="nonzero"/><path fill="#f3e2ce" d="M 674.164062 577.800781 L 760.734375 577.800781 L 760.734375 583.1875 L 674.164062 583.1875 Z M 674.164062 577.800781 " fill-opacity="1" fill-rule="nonzero"/><path fill="#f3e2ce" d="M 755.339844 577.800781 L 755.339844 620.980469 L 760.726562 620.980469 L 760.726562 577.800781 Z M 755.339844 577.800781 " fill-opacity="1" fill-rule="nonzero"/><path fill="#f3e2ce" d="M 674.164062 577.800781 L 679.550781 577.800781 L 679.550781 620.980469 L 674.164062 620.980469 Z M 674.164062 577.800781 " fill-opacity="1" fill-rule="nonzero"/><path fill="#f3e2ce" d="M 674.164062 615.59375 L 760.734375 615.59375 L 760.734375 620.980469 L 674.164062 620.980469 Z M 674.164062 615.59375 " fill-opacity="1" fill-rule="nonzero"/><path fill="#f3e2ce" d="M 696.460938 580.089844 L 698.613281 580.089844 L 698.613281 620.945312 L 696.460938 620.945312 Z M 696.460938 580.089844 " fill-opacity="1" fill-rule="nonzero"/><path fill="#f3e2ce" d="M 676.550781 598.277344 L 758.527344 598.277344 L 758.527344 600.429688 L 676.550781 600.429688 Z M 676.550781 598.277344 " fill-opacity="1" fill-rule="nonzero"/><path fill="#f3e2ce" d="M 736.527344 580.089844 L 738.699219 580.089844 L 738.699219 620.945312 L 736.527344 620.945312 Z M 736.527344 580.089844 " fill-opacity="1" fill-rule="nonzero"/><path fill="#a6daf5" d="M 680.855469 602.113281 L 680.855469 606.382812 L 695.195312 603.878906 L 695.195312 602.113281 Z M 680.855469 602.113281 " fill-opacity="0.3" fill-rule="nonzero"/><path fill="#a6daf5" d="M 700.488281 602.113281 L 700.488281 608.953125 L 734.691406 604.25 L 734.691406 602.113281 Z M 700.488281 602.113281 " fill-opacity="0.3" fill-rule="nonzero"/><path fill="#a6daf5" d="M 739.945312 602.113281 L 739.945312 606.382812 L 751.050781 604.25 L 751.035156 602.113281 Z M 739.945312 602.113281 " fill-opacity="0.3" fill-rule="nonzero"/><path fill="#27465e" d="M 877.496094 580.089844 L 958.679688 580.089844 L 958.679688 618.28125 L 877.496094 618.28125 Z M 877.496094 580.089844 " fill-opacity="1" fill-rule="nonzero"/><path fill="#1b3545" d="M 877.179688 580.683594 L 877.179688 584.539062 L 952.976562 586.527344 L 954.769531 619.402344 L 957.800781 619.402344 L 957.800781 580.082031 Z M 877.179688 580.683594 " fill-opacity="1" fill-rule="nonzero"/><path fill="#f3e2ce" d="M 874.796875 577.800781 L 961.367188 577.800781 L 961.367188 583.1875 L 874.796875 583.1875 Z M 874.796875 577.800781 " fill-opacity="1" fill-rule="nonzero"/><path fill="#f3e2ce" d="M 955.980469 577.800781 L 955.980469 620.980469 L 961.367188 620.980469 L 961.367188 577.800781 Z M 955.980469 577.800781 " fill-opacity="1" fill-rule="nonzero"/><path fill="#f3e2ce" d="M 874.796875 577.800781 L 880.183594 577.800781 L 880.183594 620.980469 L 874.796875 620.980469 Z M 874.796875 577.800781 " fill-opacity="1" fill-rule="nonzero"/><path fill="#f3e2ce" d="M 874.796875 615.59375 L 961.367188 615.59375 L 961.367188 620.980469 L 874.796875 620.980469 Z M 874.796875 615.59375 " fill-opacity="1" fill-rule="nonzero"/><path fill="#f3e2ce" d="M 897.089844 580.089844 L 899.242188 580.089844 L 899.242188 620.945312 L 897.089844 620.945312 Z M 897.089844 580.089844 " fill-opacity="1" fill-rule="nonzero"/><path fill="#f3e2ce" d="M 877.179688 598.277344 L 959.160156 598.277344 L 959.160156 600.429688 L 877.179688 600.429688 Z M 877.179688 598.277344 " fill-opacity="1" fill-rule="nonzero"/><path fill="#f3e2ce" d="M 937.167969 580.089844 L 939.339844 580.089844 L 939.339844 620.945312 L 937.167969 620.945312 Z M 937.167969 580.089844 " fill-opacity="1" fill-rule="nonzero"/><path fill="#a6daf5" d="M 881.496094 602.113281 L 881.496094 606.382812 L 895.835938 603.878906 L 895.835938 602.113281 Z M 881.496094 602.113281 " fill-opacity="0.3" fill-rule="nonzero"/><path fill="#a6daf5" d="M 901.128906 602.113281 L 901.128906 608.953125 L 935.332031 604.25 L 935.332031 602.113281 Z M 901.128906 602.113281 " fill-opacity="0.3" fill-rule="nonzero"/><path fill="#a6daf5" d="M 940.589844 602.113281 L 940.589844 606.382812 L 951.691406 604.25 L 951.675781 602.113281 Z M 940.589844 602.113281 " fill-opacity="0.3" fill-rule="nonzero"/><path fill="#455763" d="M 1068.566406 488.546875 L 1114.222656 488.546875 L 1114.222656 510.023438 L 1068.566406 510.023438 Z M 1068.566406 488.546875 " fill-opacity="1" fill-rule="nonzero"/><path fill="#374b57" d="M 1068.390625 488.882812 L 1068.390625 491.054688 L 1111.019531 492.171875 L 1112.023438 510.660156 L 1113.726562 510.660156 L 1113.726562 488.546875 Z M 1068.390625 488.882812 " fill-opacity="1" fill-rule="nonzero"/><path fill="#e8cbaf" d="M 1067.042969 487.261719 L 1115.730469 487.261719 L 1115.730469 490.296875 L 1067.042969 490.296875 Z M 1067.042969 487.261719 " fill-opacity="1" fill-rule="nonzero"/><path fill="#e8cbaf" d="M 1112.699219 487.261719 L 1112.699219 511.550781 L 1115.730469 511.550781 L 1115.730469 487.261719 Z M 1112.699219 487.261719 " fill-opacity="1" fill-rule="nonzero"/><path fill="#e8cbaf" d="M 1067.042969 487.261719 L 1070.070312 487.261719 L 1070.070312 511.550781 L 1067.042969 511.550781 Z M 1067.042969 487.261719 " fill-opacity="1" fill-rule="nonzero"/><path fill="#e8cbaf" d="M 1067.042969 508.515625 L 1115.730469 508.515625 L 1115.730469 511.550781 L 1067.042969 511.550781 Z M 1067.042969 508.515625 " fill-opacity="1" fill-rule="nonzero"/><path fill="#e8cbaf" d="M 1068.390625 498.78125 L 1114.492188 498.78125 L 1114.492188 499.992188 L 1068.390625 499.992188 Z M 1068.390625 498.78125 " fill-opacity="1" fill-rule="nonzero"/><path fill="#e8cbaf" d="M 1086.792969 488.546875 L 1088.011719 488.546875 L 1088.011719 511.523438 L 1086.792969 511.523438 Z M 1086.792969 488.546875 " fill-opacity="1" fill-rule="nonzero"/><path fill="#455763" d="M 1155.585938 488.546875 L 1201.246094 488.546875 L 1201.246094 510.023438 L 1155.585938 510.023438 Z M 1155.585938 488.546875 " fill-opacity="1" fill-rule="nonzero"/><path fill="#374b57" d="M 1155.410156 488.882812 L 1155.410156 491.054688 L 1198.039062 492.171875 L 1199.046875 510.660156 L 1200.753906 510.660156 L 1200.753906 488.546875 Z M 1155.410156 488.882812 " fill-opacity="1" fill-rule="nonzero"/><path fill="#e8cbaf" d="M 1154.070312 487.261719 L 1202.761719 487.261719 L 1202.761719 490.296875 L 1154.070312 490.296875 Z M 1154.070312 487.261719 " fill-opacity="1" fill-rule="nonzero"/><path fill="#e8cbaf" d="M 1199.730469 487.261719 L 1199.730469 511.550781 L 1202.761719 511.550781 L 1202.761719 487.261719 Z M 1199.730469 487.261719 " fill-opacity="1" fill-rule="nonzero"/><path fill="#e8cbaf" d="M 1154.070312 487.261719 L 1157.101562 487.261719 L 1157.101562 511.550781 L 1154.070312 511.550781 Z M 1154.070312 487.261719 " fill-opacity="1" fill-rule="nonzero"/><path fill="#e8cbaf" d="M 1154.070312 508.515625 L 1202.761719 508.515625 L 1202.761719 511.550781 L 1154.070312 511.550781 Z M 1154.070312 508.515625 " fill-opacity="1" fill-rule="nonzero"/><path fill="#e8cbaf" d="M 1155.410156 498.78125 L 1201.511719 498.78125 L 1201.511719 499.992188 L 1155.410156 499.992188 Z M 1155.410156 498.78125 " fill-opacity="1" fill-rule="nonzero"/><path fill="#e8cbaf" d="M 1173.824219 488.546875 L 1175.042969 488.546875 L 1175.042969 511.523438 L 1173.824219 511.523438 Z M 1173.824219 488.546875 " fill-opacity="1" fill-rule="nonzero"/><path fill="#455763" d="M 1242.609375 488.546875 L 1288.265625 488.546875 L 1288.265625 510.023438 L 1242.609375 510.023438 Z M 1242.609375 488.546875 " fill-opacity="1" fill-rule="nonzero"/><path fill="#374b57" d="M 1242.433594 488.882812 L 1242.433594 491.054688 L 1285.070312 492.171875 L 1286.066406 510.660156 L 1287.777344 510.660156 L 1287.777344 488.546875 Z M 1242.433594 488.882812 " fill-opacity="1" fill-rule="nonzero"/><path fill="#e8cbaf" d="M 1241.09375 487.261719 L 1289.78125 487.261719 L 1289.78125 490.296875 L 1241.09375 490.296875 Z M 1241.09375 487.261719 " fill-opacity="1" fill-rule="nonzero"/><path fill="#e8cbaf" d="M 1286.75 487.261719 L 1286.75 511.550781 L 1289.78125 511.550781 L 1289.78125 487.261719 Z M 1286.75 487.261719 " fill-opacity="1" fill-rule="nonzero"/><path fill="#e8cbaf" d="M 1241.09375 487.261719 L 1244.125 487.261719 L 1244.125 511.550781 L 1241.09375 511.550781 Z M 1241.09375 487.261719 " fill-opacity="1" fill-rule="nonzero"/><path fill="#e8cbaf" d="M 1241.09375 508.515625 L 1289.78125 508.515625 L 1289.78125 511.550781 L 1241.09375 511.550781 Z M 1241.09375 508.515625 " fill-opacity="1" fill-rule="nonzero"/><path fill="#e8cbaf" d="M 1242.433594 498.78125 L 1288.535156 498.78125 L 1288.535156 499.992188 L 1242.433594 499.992188 Z M 1242.433594 498.78125 " fill-opacity="1" fill-rule="nonzero"/><path fill="#e8cbaf" d="M 1260.84375 488.546875 L 1262.066406 488.546875 L 1262.066406 511.523438 L 1260.84375 511.523438 Z M 1260.84375 488.546875 " fill-opacity="1" fill-rule="nonzero"/><path fill="#455763" d="M 144.210938 488.546875 L 189.871094 488.546875 L 189.871094 510.023438 L 144.210938 510.023438 Z M 144.210938 488.546875 " fill-opacity="1" fill-rule="nonzero"/><path fill="#374b57" d="M 144.039062 488.882812 L 144.039062 491.054688 L 186.664062 492.171875 L 187.671875 510.660156 L 189.382812 510.660156 L 189.382812 488.546875 Z M 144.039062 488.882812 " fill-opacity="1" fill-rule="nonzero"/><path fill="#e8cbaf" d="M 142.6875 487.261719 L 191.378906 487.261719 L 191.378906 490.296875 L 142.6875 490.296875 Z M 142.6875 487.261719 " fill-opacity="1" fill-rule="nonzero"/><path fill="#e8cbaf" d="M 188.347656 487.261719 L 188.347656 511.550781 L 191.378906 511.550781 L 191.378906 487.261719 Z M 188.347656 487.261719 " fill-opacity="1" fill-rule="nonzero"/><path fill="#e8cbaf" d="M 142.6875 487.261719 L 145.71875 487.261719 L 145.71875 511.550781 L 142.6875 511.550781 Z M 142.6875 487.261719 " fill-opacity="1" fill-rule="nonzero"/><path fill="#e8cbaf" d="M 142.6875 508.515625 L 191.378906 508.515625 L 191.378906 511.550781 L 142.6875 511.550781 Z M 142.6875 508.515625 " fill-opacity="1" fill-rule="nonzero"/><path fill="#e8cbaf" d="M 144.039062 498.78125 L 190.140625 498.78125 L 190.140625 499.992188 L 144.039062 499.992188 Z M 144.039062 498.78125 " fill-opacity="1" fill-rule="nonzero"/><path fill="#e8cbaf" d="M 162.441406 488.546875 L 163.660156 488.546875 L 163.660156 511.523438 L 162.441406 511.523438 Z M 162.441406 488.546875 " fill-opacity="1" fill-rule="nonzero"/><path fill="#455763" d="M 231.234375 488.546875 L 276.894531 488.546875 L 276.894531 510.023438 L 231.234375 510.023438 Z M 231.234375 488.546875 " fill-opacity="1" fill-rule="nonzero"/><path fill="#374b57" d="M 231.058594 488.882812 L 231.058594 491.054688 L 273.6875 492.171875 L 274.695312 510.660156 L 276.402344 510.660156 L 276.402344 488.546875 Z M 231.058594 488.882812 " fill-opacity="1" fill-rule="nonzero"/><path fill="#e8cbaf" d="M 229.71875 487.261719 L 278.40625 487.261719 L 278.40625 490.296875 L 229.71875 490.296875 Z M 229.71875 487.261719 " fill-opacity="1" fill-rule="nonzero"/><path fill="#e8cbaf" d="M 275.378906 487.261719 L 275.378906 511.550781 L 278.40625 511.550781 L 278.40625 487.261719 Z M 275.378906 487.261719 " fill-opacity="1" fill-rule="nonzero"/><path fill="#e8cbaf" d="M 229.71875 487.261719 L 232.75 487.261719 L 232.75 511.550781 L 229.71875 511.550781 Z M 229.71875 487.261719 " fill-opacity="1" fill-rule="nonzero"/><path fill="#e8cbaf" d="M 229.71875 508.515625 L 278.40625 508.515625 L 278.40625 511.550781 L 229.71875 511.550781 Z M 229.71875 508.515625 " fill-opacity="1" fill-rule="nonzero"/><path fill="#e8cbaf" d="M 231.058594 498.78125 L 277.160156 498.78125 L 277.160156 499.992188 L 231.058594 499.992188 Z M 231.058594 498.78125 " fill-opacity="1" fill-rule="nonzero"/><path fill="#e8cbaf" d="M 249.472656 488.546875 L 250.691406 488.546875 L 250.691406 511.523438 L 249.472656 511.523438 Z M 249.472656 488.546875 " fill-opacity="1" fill-rule="nonzero"/><path fill="#455763" d="M 318.265625 488.546875 L 363.921875 488.546875 L 363.921875 510.023438 L 318.265625 510.023438 Z M 318.265625 488.546875 " fill-opacity="1" fill-rule="nonzero"/><path fill="#374b57" d="M 318.078125 488.882812 L 318.078125 491.054688 L 360.71875 492.171875 L 361.722656 510.660156 L 363.425781 510.660156 L 363.425781 488.546875 Z M 318.078125 488.882812 " fill-opacity="1" fill-rule="nonzero"/><path fill="#e8cbaf" d="M 316.738281 487.261719 L 365.429688 487.261719 L 365.429688 490.296875 L 316.738281 490.296875 Z M 316.738281 487.261719 " fill-opacity="1" fill-rule="nonzero"/><path fill="#e8cbaf" d="M 362.398438 487.261719 L 362.398438 511.550781 L 365.429688 511.550781 L 365.429688 487.261719 Z M 362.398438 487.261719 " fill-opacity="1" fill-rule="nonzero"/><path fill="#e8cbaf" d="M 316.738281 487.261719 L 319.769531 487.261719 L 319.769531 511.550781 L 316.738281 511.550781 Z M 316.738281 487.261719 " fill-opacity="1" fill-rule="nonzero"/><path fill="#e8cbaf" d="M 316.738281 508.515625 L 365.429688 508.515625 L 365.429688 511.550781 L 316.738281 511.550781 Z M 316.738281 508.515625 " fill-opacity="1" fill-rule="nonzero"/><path fill="#e8cbaf" d="M 318.078125 498.78125 L 364.183594 498.78125 L 364.183594 499.992188 L 318.078125 499.992188 Z M 318.078125 498.78125 " fill-opacity="1" fill-rule="nonzero"/><path fill="#e8cbaf" d="M 336.492188 488.546875 L 337.710938 488.546875 L 337.710938 511.523438 L 336.492188 511.523438 Z M 336.492188 488.546875 " fill-opacity="1" fill-rule="nonzero"/><path fill="#e8cbaf" d="M 923.96875 803.078125 L 370.851562 803.078125 L 370.851562 810.300781 L 1064.683594 810.300781 L 1064.683594 803.078125 Z M 923.96875 803.078125 " fill-opacity="1" fill-rule="nonzero"/><path fill="#e8cbaf" d="M 902.328125 795.859375 L 392.488281 795.859375 L 392.488281 803.078125 L 1043.046875 803.078125 L 1043.046875 795.859375 Z M 902.328125 795.859375 " fill-opacity="1" fill-rule="nonzero"/><path fill="#e8cbaf" d="M 877.246094 788.628906 L 417.574219 788.628906 L 417.574219 795.851562 L 1017.964844 795.851562 L 1017.964844 788.628906 Z M 877.246094 788.628906 " fill-opacity="1" fill-rule="nonzero"/><path fill="#e8cbaf" d="M 855.609375 781.410156 L 439.210938 781.410156 L 439.210938 788.628906 L 996.328125 788.628906 L 996.328125 781.410156 Z M 855.609375 781.410156 " fill-opacity="1" fill-rule="nonzero"/><path fill="#d6b796" d="M 902.328125 801.722656 L 392.488281 801.722656 L 392.488281 803.078125 L 1043.046875 803.078125 L 1043.046875 801.722656 Z M 902.328125 801.722656 " fill-opacity="0.28" fill-rule="nonzero"/><path fill="#d6b796" d="M 877.246094 794.507812 L 417.574219 794.507812 L 417.574219 795.851562 L 1017.964844 795.851562 L 1017.964844 794.507812 Z M 877.246094 794.507812 " fill-opacity="0.28" fill-rule="nonzero"/><path fill="#d6b796" d="M 855.609375 787.28125 L 439.210938 787.28125 L 439.210938 788.628906 L 996.328125 788.628906 L 996.328125 787.28125 Z M 855.609375 787.28125 " fill-opacity="0.28" fill-rule="nonzero"/><path fill="#dc8969" d="M 26.878906 565.261719 L 46.714844 565.261719 L 46.714844 574.128906 L 26.878906 574.128906 Z M 26.878906 565.261719 " fill-opacity="0.4" fill-rule="nonzero"/><path fill="#dc8969" d="M 46.714844 658.480469 L 66.550781 658.480469 L 66.550781 667.34375 L 46.714844 667.34375 Z M 46.714844 658.480469 " fill-opacity="0.4" fill-rule="nonzero"/><path fill="#dc8969" d="M 148.066406 750.261719 L 167.902344 750.261719 L 167.902344 759.128906 L 148.066406 759.128906 Z M 148.066406 750.261719 " fill-opacity="0.4" fill-rule="nonzero"/><path fill="#dc8969" d="M 341.945312 573.371094 L 361.78125 573.371094 L 361.78125 582.238281 L 341.945312 582.238281 Z M 341.945312 573.371094 " fill-opacity="0.4" fill-rule="nonzero"/><path fill="#dc8969" d="M 453.6875 627.8125 L 473.523438 627.8125 L 473.523438 636.679688 L 453.6875 636.679688 Z M 453.6875 627.8125 " fill-opacity="0.4" fill-rule="nonzero"/><path fill="#dc8969" d="M 529.390625 562.109375 L 549.226562 562.109375 L 549.226562 570.976562 L 529.390625 570.976562 Z M 529.390625 562.109375 " fill-opacity="0.4" fill-rule="nonzero"/><path fill="#dc8969" d="M 724.765625 554.640625 L 744.601562 554.640625 L 744.601562 563.507812 L 724.765625 563.507812 Z M 724.765625 554.640625 " fill-opacity="0.4" fill-rule="nonzero"/><path fill="#dc8969" d="M 854.054688 627.785156 L 873.890625 627.785156 L 873.890625 636.652344 L 854.054688 636.652344 Z M 854.054688 627.785156 " fill-opacity="0.4" fill-rule="nonzero"/><path fill="#dc8969" d="M 1106.058594 659.988281 L 1125.894531 659.988281 L 1125.894531 668.851562 L 1106.058594 668.851562 Z M 1106.058594 659.988281 " fill-opacity="0.4" fill-rule="nonzero"/><path fill="#dc8969" d="M 1058.078125 746.296875 L 1077.914062 746.296875 L 1077.914062 755.164062 L 1058.078125 755.164062 Z M 1058.078125 746.296875 " fill-opacity="0.4" fill-rule="nonzero"/><path fill="#dc8969" d="M 1086.570312 554.640625 L 1106.40625 554.640625 L 1106.40625 563.507812 L 1086.570312 563.507812 Z M 1086.570312 554.640625 " fill-opacity="0.4" fill-rule="nonzero"/><path fill="#dc8969" d="M 1003.246094 477.992188 L 1023.082031 477.992188 L 1023.082031 486.855469 L 1003.246094 486.855469 Z M 1003.246094 477.992188 " fill-opacity="0.4" fill-rule="nonzero"/><path fill="#dc8969" d="M 951.445312 452.179688 L 971.28125 452.179688 L 971.28125 461.042969 L 951.445312 461.042969 Z M 951.445312 452.179688 " fill-opacity="0.4" fill-rule="nonzero"/><path fill="#dc8969" d="M 750.8125 446.78125 L 770.648438 446.78125 L 770.648438 455.644531 L 750.8125 455.644531 Z M 750.8125 446.78125 " fill-opacity="0.4" fill-rule="nonzero"/><path fill="#dc8969" d="M 556.527344 442.351562 L 576.363281 442.351562 L 576.363281 451.21875 L 556.527344 451.21875 Z M 556.527344 442.351562 " fill-opacity="0.4" fill-rule="nonzero"/><path fill="#dc8969" d="M 405.414062 453.214844 L 425.25 453.214844 L 425.25 462.078125 L 405.414062 462.078125 Z M 405.414062 453.214844 " fill-opacity="0.4" fill-rule="nonzero"/><path fill="#dc8969" d="M 1224.359375 601.957031 L 1244.195312 601.957031 L 1244.195312 610.820312 L 1224.359375 610.820312 Z M 1224.359375 601.957031 " fill-opacity="0.4" fill-rule="nonzero"/><path fill="#dc8969" d="M 1295.085938 667.179688 L 1314.921875 667.179688 L 1314.921875 676.042969 L 1295.085938 676.042969 Z M 1295.085938 667.179688 " fill-opacity="0.4" fill-rule="nonzero"/><path fill="#dc8969" d="M 1263.515625 759.128906 L 1283.351562 759.128906 L 1283.351562 767.996094 L 1263.515625 767.996094 Z M 1263.515625 759.128906 " fill-opacity="0.4" fill-rule="nonzero"/><path fill="#dc8969" d="M 1391.566406 573.859375 L 1411.402344 573.859375 L 1411.402344 582.726562 L 1391.566406 582.726562 Z M 1391.566406 573.859375 " fill-opacity="0.4" fill-rule="nonzero"/><path fill="#dc8969" d="M 303.351562 667.34375 L 323.1875 667.34375 L 323.1875 676.210938 L 303.351562 676.210938 Z M 303.351562 667.34375 " fill-opacity="0.4" fill-rule="nonzero"/><path fill="#dc8969" d="M 354.546875 760.886719 L 374.382812 760.886719 L 374.382812 769.75 L 354.546875 769.75 Z M 354.546875 760.886719 " fill-opacity="0.4" fill-rule="nonzero"/><path fill="#b26952" d="M 678.324219 403.660156 C 678.601562 401.414062 677.953125 348.773438 677.953125 348.773438 L 690.859375 348.773438 L 690.757812 370.167969 L 706.925781 370.148438 L 707.390625 348.375 L 719.925781 348.375 L 717.882812 403.652344 L 707.082031 403.652344 L 706.925781 380.269531 L 690.40625 380.269531 L 689.992188 403.652344 L 678.324219 403.652344 Z M 678.324219 403.660156 " fill-opacity="1" fill-rule="nonzero"/><path fill="#b26952" d="M 745.324219 348.050781 C 732.417969 348.109375 721.996094 360.597656 722.050781 375.953125 C 722.117188 391.308594 732.628906 403.714844 745.546875 403.660156 C 758.460938 403.605469 768.875 391.117188 768.820312 375.761719 C 768.753906 360.402344 758.238281 347.996094 745.324219 348.050781 Z M 746.625 391.539062 C 740.75 391.570312 735.972656 385.226562 735.9375 377.394531 C 735.910156 369.554688 740.640625 363.1875 746.507812 363.160156 C 752.382812 363.132812 757.160156 369.464844 757.195312 377.304688 C 757.234375 385.144531 752.503906 391.511719 746.625 391.539062 Z M 746.625 391.539062 " fill-opacity="1" fill-rule="nonzero"/><path fill="#ffffff" d="M 746.007812 397.191406 C 738.367188 397.144531 732.75 390.746094 730.71875 383.839844 C 730.042969 381.546875 729.730469 379.179688 729.71875 376.796875 C 729.71875 376.046875 728.554688 376.046875 728.5625 376.796875 C 728.59375 384.765625 732.324219 393.546875 739.929688 397.003906 C 741.851562 397.875 743.902344 398.335938 746.015625 398.355469 C 746.753906 398.34375 746.753906 397.191406 746.007812 397.191406 Z M 746.007812 397.191406 " fill-opacity="0.64" fill-rule="nonzero"/><path fill="#ffffff" d="M 746.007812 356.390625 C 753.648438 356.4375 759.265625 362.835938 761.296875 369.742188 C 761.972656 372.035156 762.285156 374.402344 762.296875 376.785156 C 762.296875 377.535156 763.460938 377.535156 763.449219 376.785156 C 763.421875 368.816406 759.691406 360.035156 752.085938 356.578125 C 750.164062 355.707031 748.113281 355.246094 746 355.226562 C 745.269531 355.226562 745.269531 356.382812 746.007812 356.390625 Z M 746.007812 356.390625 " fill-opacity="0.64" fill-rule="nonzero"/><path fill="#b26952" d="M 794.226562 348.050781 C 781.308594 348.109375 770.898438 360.597656 770.953125 375.953125 C 771.015625 391.308594 781.53125 403.714844 794.445312 403.660156 C 807.363281 403.605469 817.773438 391.117188 817.71875 375.761719 C 817.65625 360.402344 807.140625 347.996094 794.226562 348.050781 Z M 795.527344 391.539062 C 789.652344 391.570312 784.875 385.226562 784.839844 377.394531 C 784.8125 369.554688 789.542969 363.1875 795.40625 363.160156 C 801.285156 363.132812 806.058594 369.464844 806.097656 377.304688 C 806.132812 385.144531 801.394531 391.511719 795.527344 391.539062 Z M 795.527344 391.539062 " fill-opacity="1" fill-rule="nonzero"/><path fill="#ffffff" d="M 794.910156 397.191406 C 787.269531 397.144531 781.652344 390.746094 779.617188 383.839844 C 778.945312 381.546875 778.628906 379.179688 778.621094 376.796875 C 778.621094 376.046875 777.457031 376.046875 777.464844 376.796875 C 777.492188 384.765625 781.226562 393.546875 788.828125 397.003906 C 790.75 397.875 792.800781 398.335938 794.917969 398.355469 C 795.65625 398.34375 795.65625 397.191406 794.910156 397.191406 Z M 794.910156 397.191406 " fill-opacity="0.64" fill-rule="nonzero"/><path fill="#ffffff" d="M 794.910156 356.390625 C 802.550781 356.4375 808.167969 362.835938 810.199219 369.742188 C 810.875 372.035156 811.1875 374.402344 811.195312 376.785156 C 811.195312 377.535156 812.363281 377.535156 812.351562 376.785156 C 812.324219 368.816406 808.59375 360.035156 800.988281 356.578125 C 799.066406 355.707031 797.015625 355.246094 794.898438 355.226562 C 794.171875 355.226562 794.160156 356.382812 794.910156 356.390625 Z M 794.910156 356.390625 " fill-opacity="0.64" fill-rule="nonzero"/><path fill="#b26952" d="M 845.296875 392.289062 L 845.296875 403.660156 L 821.203125 403.652344 L 821.222656 348.386719 L 834.527344 348.394531 C 834.527344 348.394531 834.628906 350.566406 834.773438 353.941406 C 834.792969 354.3125 834.8125 354.699219 834.832031 355.097656 C 834.960938 357.796875 835.109375 361.105469 835.265625 364.628906 C 835.28125 365.007812 835.300781 365.40625 835.320312 365.792969 C 835.449219 368.519531 835.570312 371.351562 835.699219 374.105469 C 835.71875 374.492188 835.734375 374.882812 835.753906 375.269531 C 835.894531 378.496094 836.039062 381.554688 836.160156 384.171875 C 836.179688 384.570312 836.199219 384.957031 836.214844 385.328125 C 836.390625 389.285156 836.511719 392.125 836.511719 392.125 Z M 845.296875 392.289062 " fill-opacity="1" fill-rule="nonzero"/><path fill="#ffffff" d="M 841.242188 397.570312 C 837.640625 397.570312 834.035156 397.570312 830.433594 397.570312 C 830.101562 397.570312 829.777344 397.570312 829.445312 397.570312 C 829.40625 396.246094 829.378906 394.925781 829.34375 393.613281 C 829.25 389.988281 829.15625 386.371094 829.066406 382.75 C 828.953125 378.386719 828.84375 374.023438 828.734375 369.65625 C 828.640625 365.886719 828.539062 362.113281 828.445312 358.332031 C 828.398438 356.492188 828.410156 354.644531 828.308594 352.804688 C 828.308594 352.777344 828.308594 352.75 828.308594 352.730469 C 828.289062 352 827.160156 352 827.179688 352.730469 C 827.21875 354.238281 827.253906 355.746094 827.292969 357.261719 C 827.382812 360.882812 827.476562 364.5 827.570312 368.125 C 827.679688 372.488281 827.789062 376.851562 827.902344 381.214844 C 827.992188 384.984375 828.09375 388.757812 828.1875 392.539062 C 828.234375 394.378906 828.222656 396.226562 828.328125 398.066406 C 828.328125 398.09375 828.328125 398.125 828.328125 398.140625 C 828.335938 398.445312 828.574219 398.707031 828.890625 398.707031 C 832.492188 398.707031 836.097656 398.707031 839.699219 398.707031 C 840.214844 398.707031 840.726562 398.707031 841.242188 398.707031 C 841.972656 398.695312 841.972656 397.570312 841.242188 397.570312 Z M 841.242188 397.570312 " fill-opacity="0.64" fill-rule="nonzero"/><path fill="#b26952" d="M 628.832031 359.65625 L 630.328125 351.84375 C 624 348.023438 604.71875 343.78125 603.304688 359.65625 C 602.082031 373.429688 617.714844 377.691406 617.714844 386.410156 C 617.714844 395.128906 606.839844 394.433594 603.238281 394.433594 C 603.257812 399.722656 603.304688 403.246094 603.304688 403.246094 C 608.109375 403.550781 630.328125 406.554688 630.328125 390.617188 C 630.328125 374.679688 613.816406 372.902344 613.816406 362.078125 C 613.828125 353.101562 624.332031 356.652344 628.832031 359.65625 Z M 628.832031 359.65625 " fill-opacity="1" fill-rule="nonzero"/><path fill="#ffffff" d="M 609.695312 354.855469 C 608.035156 357.148438 607.203125 359.847656 607.683594 362.667969 C 608.136719 365.339844 609.632812 367.746094 611.230469 369.878906 C 613.050781 372.3125 615.109375 374.539062 617.058594 376.871094 C 618.84375 379.003906 620.652344 381.296875 621.679688 383.914062 C 622.808594 386.808594 622.585938 389.730469 620.96875 392.390625 C 620.597656 392.992188 621.550781 393.546875 621.910156 392.945312 C 623.359375 390.5625 623.886719 387.832031 623.214844 385.105469 C 622.546875 382.40625 620.941406 380.03125 619.257812 377.867188 C 617.402344 375.464844 615.324219 373.246094 613.402344 370.898438 C 611.671875 368.78125 609.957031 366.488281 609.105469 363.863281 C 608.136719 360.847656 608.808594 357.945312 610.640625 355.410156 C 611.054688 354.839844 610.101562 354.292969 609.695312 354.855469 Z M 609.695312 354.855469 " fill-opacity="0.64" fill-rule="nonzero"/><path fill="#b26952" d="M 666.035156 367.132812 C 659.160156 356.972656 645.285156 361.734375 645.285156 375.804688 C 645.285156 388.859375 652.378906 391.964844 655.742188 391.964844 C 658.773438 391.964844 663.015625 390.847656 665.941406 386.808594 C 669.824219 388.546875 673.316406 390.421875 673.316406 390.421875 C 671.457031 394.703125 667.144531 403.660156 654.976562 403.660156 C 639.925781 403.660156 633.097656 388.109375 633.097656 373.382812 C 633.097656 358.40625 643.675781 348.285156 654.644531 348.285156 C 663.023438 348.285156 671.734375 352.65625 674.257812 365.425781 C 668.371094 366.644531 666.035156 367.132812 666.035156 367.132812 Z M 666.035156 367.132812 " fill-opacity="1" fill-rule="nonzero"/><path fill="#e8cbaf" d="M 393.246094 516.671875 L 393.246094 545.5625 L 382.972656 545.5625 L 369.726562 516.671875 Z M 393.246094 516.671875 " fill-opacity="1" fill-rule="nonzero"/><path fill="#e8cbaf" d="M 1038.964844 516.671875 L 1038.964844 545.5625 L 1049.246094 545.5625 L 1062.496094 516.671875 Z M 1038.964844 516.671875 " fill-opacity="1" fill-rule="nonzero"/><path fill="#f3e2ce" d="M 391.296875 545.570312 L 372.800781 506.519531 L 1061.460938 506.519531 L 1040.65625 546.652344 Z M 391.296875 545.570312 " fill-opacity="1" fill-rule="nonzero"/><path fill="#f3e2ce" d="M 372.800781 502.183594 L 1061.460938 502.183594 L 1061.460938 506.519531 L 372.800781 506.519531 Z M 372.800781 502.183594 " fill-opacity="1" fill-rule="nonzero"/><path fill="#27465e" d="M 476.222656 449.070312 L 557.40625 449.070312 L 557.40625 487.261719 L 476.222656 487.261719 Z M 476.222656 449.070312 " fill-opacity="1" fill-rule="nonzero"/><path fill="#1b3545" d="M 475.90625 449.664062 L 475.90625 453.527344 L 551.703125 455.507812 L 553.488281 488.382812 L 556.527344 488.382812 L 556.527344 449.0625 Z M 475.90625 449.664062 " fill-opacity="1" fill-rule="nonzero"/><path fill="#f3e2ce" d="M 473.523438 446.78125 L 560.09375 446.78125 L 560.09375 452.167969 L 473.523438 452.167969 Z M 473.523438 446.78125 " fill-opacity="1" fill-rule="nonzero"/><path fill="#f3e2ce" d="M 554.707031 446.78125 L 554.707031 489.960938 L 560.09375 489.960938 L 560.09375 446.78125 Z M 554.707031 446.78125 " fill-opacity="1" fill-rule="nonzero"/><path fill="#f3e2ce" d="M 473.523438 446.78125 L 478.910156 446.78125 L 478.910156 489.960938 L 473.523438 489.960938 Z M 473.523438 446.78125 " fill-opacity="1" fill-rule="nonzero"/><path fill="#f3e2ce" d="M 473.523438 484.574219 L 560.09375 484.574219 L 560.09375 489.960938 L 473.523438 489.960938 Z M 473.523438 484.574219 " fill-opacity="1" fill-rule="nonzero"/><path fill="#f3e2ce" d="M 495.816406 449.070312 L 497.96875 449.070312 L 497.96875 489.925781 L 495.816406 489.925781 Z M 495.816406 449.070312 " fill-opacity="1" fill-rule="nonzero"/><path fill="#f3e2ce" d="M 475.90625 467.257812 L 557.886719 467.257812 L 557.886719 469.410156 L 475.90625 469.410156 Z M 475.90625 467.257812 " fill-opacity="1" fill-rule="nonzero"/><path fill="#f3e2ce" d="M 535.886719 449.070312 L 538.058594 449.070312 L 538.058594 489.925781 L 535.886719 489.925781 Z M 535.886719 449.070312 " fill-opacity="1" fill-rule="nonzero"/><path fill="#a6daf5" d="M 480.214844 471.101562 L 480.214844 475.375 L 494.550781 472.859375 L 494.550781 471.101562 Z M 480.214844 471.101562 " fill-opacity="0.3" fill-rule="nonzero"/><path fill="#a6daf5" d="M 499.847656 471.101562 L 499.847656 477.933594 L 534.046875 473.238281 L 534.046875 471.101562 Z M 499.847656 471.101562 " fill-opacity="0.3" fill-rule="nonzero"/><path fill="#a6daf5" d="M 539.316406 471.101562 L 539.316406 475.375 L 550.417969 473.238281 L 550.390625 471.101562 Z M 539.316406 471.101562 " fill-opacity="0.3" fill-rule="nonzero"/><path fill="#27465e" d="M 576.539062 449.070312 L 657.71875 449.070312 L 657.71875 487.261719 L 576.539062 487.261719 Z M 576.539062 449.070312 " fill-opacity="1" fill-rule="nonzero"/><path fill="#1b3545" d="M 576.222656 449.664062 L 576.222656 453.527344 L 652.019531 455.507812 L 653.8125 488.382812 L 656.851562 488.382812 L 656.851562 449.0625 Z M 576.222656 449.664062 " fill-opacity="1" fill-rule="nonzero"/><path fill="#f3e2ce" d="M 573.839844 446.78125 L 660.410156 446.78125 L 660.410156 452.167969 L 573.839844 452.167969 Z M 573.839844 446.78125 " fill-opacity="1" fill-rule="nonzero"/><path fill="#f3e2ce" d="M 655.023438 446.78125 L 655.023438 489.960938 L 660.410156 489.960938 L 660.410156 446.78125 Z M 655.023438 446.78125 " fill-opacity="1" fill-rule="nonzero"/><path fill="#f3e2ce" d="M 573.839844 446.78125 L 579.226562 446.78125 L 579.226562 489.960938 L 573.839844 489.960938 Z M 573.839844 446.78125 " fill-opacity="1" fill-rule="nonzero"/><path fill="#f3e2ce" d="M 573.839844 484.574219 L 660.410156 484.574219 L 660.410156 489.960938 L 573.839844 489.960938 Z M 573.839844 484.574219 " fill-opacity="1" fill-rule="nonzero"/><path fill="#f3e2ce" d="M 596.132812 449.070312 L 598.285156 449.070312 L 598.285156 489.925781 L 596.132812 489.925781 Z M 596.132812 449.070312 " fill-opacity="1" fill-rule="nonzero"/><path fill="#f3e2ce" d="M 576.222656 467.257812 L 658.199219 467.257812 L 658.199219 469.410156 L 576.222656 469.410156 Z M 576.222656 467.257812 " fill-opacity="1" fill-rule="nonzero"/><path fill="#f3e2ce" d="M 636.210938 449.070312 L 638.382812 449.070312 L 638.382812 489.925781 L 636.210938 489.925781 Z M 636.210938 449.070312 " fill-opacity="1" fill-rule="nonzero"/><path fill="#a6daf5" d="M 580.539062 471.101562 L 580.539062 475.375 L 594.878906 472.859375 L 594.878906 471.101562 Z M 580.539062 471.101562 " fill-opacity="0.3" fill-rule="nonzero"/><path fill="#a6daf5" d="M 600.171875 471.101562 L 600.171875 477.933594 L 634.375 473.238281 L 634.375 471.101562 Z M 600.171875 471.101562 " fill-opacity="0.3" fill-rule="nonzero"/><path fill="#a6daf5" d="M 639.628906 471.101562 L 639.628906 475.375 L 650.734375 473.238281 L 650.71875 471.101562 Z M 639.628906 471.101562 " fill-opacity="0.3" fill-rule="nonzero"/><path fill="#27465e" d="M 777.179688 449.070312 L 858.363281 449.070312 L 858.363281 487.261719 L 777.179688 487.261719 Z M 777.179688 449.070312 " fill-opacity="1" fill-rule="nonzero"/><path fill="#1b3545" d="M 776.867188 449.664062 L 776.867188 453.527344 L 852.660156 455.507812 L 854.445312 488.382812 L 857.484375 488.382812 L 857.484375 449.0625 Z M 776.867188 449.664062 " fill-opacity="1" fill-rule="nonzero"/><path fill="#f3e2ce" d="M 774.480469 446.78125 L 861.050781 446.78125 L 861.050781 452.167969 L 774.480469 452.167969 Z M 774.480469 446.78125 " fill-opacity="1" fill-rule="nonzero"/><path fill="#f3e2ce" d="M 855.664062 446.78125 L 855.664062 489.960938 L 861.050781 489.960938 L 861.050781 446.78125 Z M 855.664062 446.78125 " fill-opacity="1" fill-rule="nonzero"/><path fill="#f3e2ce" d="M 774.480469 446.78125 L 779.867188 446.78125 L 779.867188 489.960938 L 774.480469 489.960938 Z M 774.480469 446.78125 " fill-opacity="1" fill-rule="nonzero"/><path fill="#f3e2ce" d="M 774.480469 484.574219 L 861.050781 484.574219 L 861.050781 489.960938 L 774.480469 489.960938 Z M 774.480469 484.574219 " fill-opacity="1" fill-rule="nonzero"/><path fill="#f3e2ce" d="M 796.773438 449.070312 L 798.929688 449.070312 L 798.929688 489.925781 L 796.773438 489.925781 Z M 796.773438 449.070312 " fill-opacity="1" fill-rule="nonzero"/><path fill="#f3e2ce" d="M 776.867188 467.257812 L 858.84375 467.257812 L 858.84375 469.410156 L 776.867188 469.410156 Z M 776.867188 467.257812 " fill-opacity="1" fill-rule="nonzero"/><path fill="#f3e2ce" d="M 836.84375 449.070312 L 839.015625 449.070312 L 839.015625 489.925781 L 836.84375 489.925781 Z M 836.84375 449.070312 " fill-opacity="1" fill-rule="nonzero"/><path fill="#a6daf5" d="M 781.171875 471.101562 L 781.171875 475.375 L 795.507812 472.859375 L 795.507812 471.101562 Z M 781.171875 471.101562 " fill-opacity="0.3" fill-rule="nonzero"/><path fill="#a6daf5" d="M 800.804688 471.101562 L 800.804688 477.933594 L 835.007812 473.238281 L 835.007812 471.101562 Z M 800.804688 471.101562 " fill-opacity="0.3" fill-rule="nonzero"/><path fill="#a6daf5" d="M 840.273438 471.101562 L 840.273438 475.375 L 851.378906 473.238281 L 851.347656 471.101562 Z M 840.273438 471.101562 " fill-opacity="0.3" fill-rule="nonzero"/><path fill="#27465e" d="M 676.863281 449.070312 L 758.046875 449.070312 L 758.046875 487.261719 L 676.863281 487.261719 Z M 676.863281 449.070312 " fill-opacity="1" fill-rule="nonzero"/><path fill="#1b3545" d="M 676.550781 449.664062 L 676.550781 453.527344 L 752.34375 455.507812 L 754.128906 488.382812 L 757.167969 488.382812 L 757.167969 449.0625 Z M 676.550781 449.664062 " fill-opacity="1" fill-rule="nonzero"/><path fill="#f3e2ce" d="M 674.164062 446.78125 L 760.734375 446.78125 L 760.734375 452.167969 L 674.164062 452.167969 Z M 674.164062 446.78125 " fill-opacity="1" fill-rule="nonzero"/><path fill="#f3e2ce" d="M 755.339844 446.78125 L 755.339844 489.960938 L 760.726562 489.960938 L 760.726562 446.78125 Z M 755.339844 446.78125 " fill-opacity="1" fill-rule="nonzero"/><path fill="#f3e2ce" d="M 674.164062 446.78125 L 679.550781 446.78125 L 679.550781 489.960938 L 674.164062 489.960938 Z M 674.164062 446.78125 " fill-opacity="1" fill-rule="nonzero"/><path fill="#f3e2ce" d="M 674.164062 484.574219 L 760.734375 484.574219 L 760.734375 489.960938 L 674.164062 489.960938 Z M 674.164062 484.574219 " fill-opacity="1" fill-rule="nonzero"/><path fill="#f3e2ce" d="M 696.460938 449.070312 L 698.613281 449.070312 L 698.613281 489.925781 L 696.460938 489.925781 Z M 696.460938 449.070312 " fill-opacity="1" fill-rule="nonzero"/><path fill="#f3e2ce" d="M 676.550781 467.257812 L 758.527344 467.257812 L 758.527344 469.410156 L 676.550781 469.410156 Z M 676.550781 467.257812 " fill-opacity="1" fill-rule="nonzero"/><path fill="#f3e2ce" d="M 736.527344 449.070312 L 738.699219 449.070312 L 738.699219 489.925781 L 736.527344 489.925781 Z M 736.527344 449.070312 " fill-opacity="1" fill-rule="nonzero"/><path fill="#a6daf5" d="M 680.855469 471.101562 L 680.855469 475.375 L 695.195312 472.859375 L 695.195312 471.101562 Z M 680.855469 471.101562 " fill-opacity="0.3" fill-rule="nonzero"/><path fill="#a6daf5" d="M 700.488281 471.101562 L 700.488281 477.933594 L 734.691406 473.238281 L 734.691406 471.101562 Z M 700.488281 471.101562 " fill-opacity="0.3" fill-rule="nonzero"/><path fill="#a6daf5" d="M 739.945312 471.101562 L 739.945312 475.375 L 751.050781 473.238281 L 751.035156 471.101562 Z M 739.945312 471.101562 " fill-opacity="0.3" fill-rule="nonzero"/><path fill="#27465e" d="M 877.496094 449.070312 L 958.679688 449.070312 L 958.679688 487.261719 L 877.496094 487.261719 Z M 877.496094 449.070312 " fill-opacity="1" fill-rule="nonzero"/><path fill="#1b3545" d="M 877.179688 449.664062 L 877.179688 453.527344 L 952.976562 455.507812 L 954.769531 488.382812 L 957.800781 488.382812 L 957.800781 449.0625 Z M 877.179688 449.664062 " fill-opacity="1" fill-rule="nonzero"/><path fill="#f3e2ce" d="M 874.796875 446.78125 L 961.367188 446.78125 L 961.367188 452.167969 L 874.796875 452.167969 Z M 874.796875 446.78125 " fill-opacity="1" fill-rule="nonzero"/><path fill="#f3e2ce" d="M 955.980469 446.78125 L 955.980469 489.960938 L 961.367188 489.960938 L 961.367188 446.78125 Z M 955.980469 446.78125 " fill-opacity="1" fill-rule="nonzero"/><path fill="#f3e2ce" d="M 874.796875 446.78125 L 880.183594 446.78125 L 880.183594 489.960938 L 874.796875 489.960938 Z M 874.796875 446.78125 " fill-opacity="1" fill-rule="nonzero"/><path fill="#f3e2ce" d="M 874.796875 484.574219 L 961.367188 484.574219 L 961.367188 489.960938 L 874.796875 489.960938 Z M 874.796875 484.574219 " fill-opacity="1" fill-rule="nonzero"/><path fill="#f3e2ce" d="M 897.089844 449.070312 L 899.242188 449.070312 L 899.242188 489.925781 L 897.089844 489.925781 Z M 897.089844 449.070312 " fill-opacity="1" fill-rule="nonzero"/><path fill="#f3e2ce" d="M 877.179688 467.257812 L 959.160156 467.257812 L 959.160156 469.410156 L 877.179688 469.410156 Z M 877.179688 467.257812 " fill-opacity="1" fill-rule="nonzero"/><path fill="#f3e2ce" d="M 937.167969 449.070312 L 939.339844 449.070312 L 939.339844 489.925781 L 937.167969 489.925781 Z M 937.167969 449.070312 " fill-opacity="1" fill-rule="nonzero"/><path fill="#a6daf5" d="M 881.496094 471.101562 L 881.496094 475.375 L 895.835938 472.859375 L 895.835938 471.101562 Z M 881.496094 471.101562 " fill-opacity="0.3" fill-rule="nonzero"/><path fill="#a6daf5" d="M 901.128906 471.101562 L 901.128906 477.933594 L 935.332031 473.238281 L 935.332031 471.101562 Z M 901.128906 471.101562 " fill-opacity="0.3" fill-rule="nonzero"/><path fill="#a6daf5" d="M 940.589844 471.101562 L 940.589844 475.375 L 951.691406 473.238281 L 951.675781 471.101562 Z M 940.589844 471.101562 " fill-opacity="0.3" fill-rule="nonzero"/><path fill="#dc8969" d="M 660.324219 781.410156 L 657.691406 645.257812 L 778.234375 643.457031 L 776.734375 781.410156 L 767.71875 781.410156 L 768.097656 655.410156 L 665.953125 655.410156 L 667.457031 781.410156 Z M 660.324219 781.410156 " fill-opacity="0.4" fill-rule="nonzero"/><path fill="#b26952" d="M 665.886719 653.679688 L 770.046875 653.679688 L 770.046875 781.410156 L 665.886719 781.410156 Z M 665.886719 653.679688 " fill-opacity="1" fill-rule="nonzero"/><path fill="#dc8969" d="M 665.398438 660.253906 L 665.886719 653.679688 L 770.046875 653.679688 L 770.046875 781.410156 L 763.535156 781.410156 L 761.796875 662.964844 Z M 665.398438 660.253906 " fill-opacity="0.4" fill-rule="nonzero"/><path fill="#f3e2ce" d="M 662.902344 781.410156 L 660.382812 648.347656 L 776.164062 646.582031 L 774.722656 781.410156 L 766.066406 781.410156 L 766.425781 658.265625 L 668.316406 658.265625 L 669.757812 781.410156 Z M 662.902344 781.410156 " fill-opacity="1" fill-rule="nonzero"/><path fill="#dc8969" d="M 716.777344 659.988281 L 719.769531 659.988281 L 719.769531 781.410156 L 716.777344 781.410156 Z M 716.777344 659.988281 " fill-opacity="0.4" fill-rule="nonzero"/><path fill="#a7533f" d="M 708.292969 714.496094 L 712.203125 713.996094 L 712.203125 735.859375 L 710.242188 735.257812 Z M 708.292969 714.496094 " fill-opacity="1" fill-rule="nonzero"/><path fill="#a7533f" d="M 727.851562 714.640625 L 723.953125 714.144531 L 723.953125 736.007812 L 725.902344 735.40625 Z M 727.851562 714.640625 " fill-opacity="1" fill-rule="nonzero"/><path fill="#dc8969" d="M 862.140625 781.410156 L 859.507812 645.257812 L 980.046875 643.457031 L 978.550781 781.410156 L 969.535156 781.410156 L 969.914062 655.410156 L 867.777344 655.410156 L 869.273438 781.410156 Z M 862.140625 781.410156 " fill-opacity="0.4" fill-rule="nonzero"/><path fill="#b26952" d="M 867.703125 653.679688 L 971.863281 653.679688 L 971.863281 781.410156 L 867.703125 781.410156 Z M 867.703125 653.679688 " fill-opacity="1" fill-rule="nonzero"/><path fill="#dc8969" d="M 867.210938 660.253906 L 867.703125 653.679688 L 971.863281 653.679688 L 971.863281 781.410156 L 965.347656 781.410156 L 963.613281 662.964844 Z M 867.210938 660.253906 " fill-opacity="0.4" fill-rule="nonzero"/><path fill="#f3e2ce" d="M 864.71875 781.410156 L 862.195312 648.347656 L 977.976562 646.582031 L 976.535156 781.410156 L 967.878906 781.410156 L 968.238281 658.265625 L 870.132812 658.265625 L 871.574219 781.410156 Z M 864.71875 781.410156 " fill-opacity="1" fill-rule="nonzero"/><path fill="#dc8969" d="M 918.589844 659.988281 L 921.582031 659.988281 L 921.582031 781.410156 L 918.589844 781.410156 Z M 918.589844 659.988281 " fill-opacity="0.4" fill-rule="nonzero"/><path fill="#a7533f" d="M 910.117188 714.496094 L 914.015625 713.996094 L 914.015625 735.859375 L 912.066406 735.257812 Z M 910.117188 714.496094 " fill-opacity="1" fill-rule="nonzero"/><path fill="#a7533f" d="M 929.667969 714.640625 L 925.769531 714.144531 L 925.769531 736.007812 L 927.71875 735.40625 Z M 929.667969 714.640625 " fill-opacity="1" fill-rule="nonzero"/><path fill="#dc8969" d="M 460 781.410156 L 457.367188 645.257812 L 577.90625 643.457031 L 576.410156 781.410156 L 567.390625 781.410156 L 567.769531 655.410156 L 465.625 655.410156 L 467.132812 781.410156 Z M 460 781.410156 " fill-opacity="0.4" fill-rule="nonzero"/><path fill="#b26952" d="M 465.558594 653.679688 L 569.71875 653.679688 L 569.71875 781.410156 L 465.558594 781.410156 Z M 465.558594 653.679688 " fill-opacity="1" fill-rule="nonzero"/><path fill="#dc8969" d="M 465.070312 660.253906 L 465.558594 653.679688 L 569.71875 653.679688 L 569.71875 781.410156 L 563.207031 781.410156 L 561.46875 662.964844 Z M 465.070312 660.253906 " fill-opacity="0.4" fill-rule="nonzero"/><path fill="#f3e2ce" d="M 462.578125 781.410156 L 460.054688 648.347656 L 575.835938 646.582031 L 574.394531 781.410156 L 565.738281 781.410156 L 566.097656 658.265625 L 467.992188 658.265625 L 469.429688 781.410156 Z M 462.578125 781.410156 " fill-opacity="1" fill-rule="nonzero"/><path fill="#dc8969" d="M 516.449219 659.988281 L 519.441406 659.988281 L 519.441406 781.410156 L 516.449219 781.410156 Z M 516.449219 659.988281 " fill-opacity="0.4" fill-rule="nonzero"/><path fill="#a7533f" d="M 507.96875 714.496094 L 511.875 713.996094 L 511.875 735.859375 L 509.925781 735.257812 Z M 507.96875 714.496094 " fill-opacity="1" fill-rule="nonzero"/><path fill="#a7533f" d="M 527.527344 714.640625 L 523.628906 714.144531 L 523.628906 736.007812 L 525.578125 735.40625 Z M 527.527344 714.640625 " fill-opacity="1" fill-rule="nonzero"/></svg>