<?xml version="1.0" standalone="no"?><svg xmlns="http://www.w3.org/2000/svg" viewBox="0 0 1440 320"><path fill="#a2d9ff" fill-opacity="1" d="M0,224L30,229.3C60,235,120,245,180,224C240,203,300,149,360,133.3C420,117,480,139,540,149.3C600,160,660,160,720,149.3C780,139,840,117,900,96C960,75,1020,53,1080,53.3C1140,53,1200,75,1260,80C1320,85,1380,75,1410,69.3L1440,64L1440,320L1410,320C1380,320,1320,320,1260,320C1200,320,1140,320,1080,320C1020,320,960,320,900,320C840,320,780,320,720,320C660,320,600,320,540,320C480,320,420,320,360,320C300,320,240,320,180,320C120,320,60,320,30,320L0,320Z"></path></svg>